<?xml version="1.0" encoding="utf-8"?>
<!-- Generator: Adobe Illustrator 22.1.0, SVG Export Plug-In . SVG Version: 6.00 Build 0)  -->
<svg version="1.1" id="图层_1" xmlns="http://www.w3.org/2000/svg" xmlns:xlink="http://www.w3.org/1999/xlink" x="0px" y="0px"
	 viewBox="0 0 850.7 1275.6" style="enable-background:new 0 0 850.7 1275.6;" xml:space="preserve">
<style type="text/css">
	.st0{fill:url(#SVGID_1_);}
	.st1{fill:#8DDDF3;}
	.st2{fill:#9DE3F7;}
	.st3{fill:#B9EAF8;}
	.st4{fill:#FFFFFF;}
	.st5{opacity:0.31;}
	.st6{opacity:0.68;}
	.st7{opacity:0.27;}
	.st8{fill:none;}
</style>
<linearGradient id="SVGID_1_" gradientUnits="userSpaceOnUse" x1="433.1183" y1="-7" x2="433.1183" y2="1291">
	<stop  offset="0" style="stop-color:#DCF2FE"/>
	<stop  offset="1" style="stop-color:#FFFFFF"/>
</linearGradient>
<rect x="-3.8" y="-7" class="st0" width="873.8" height="1298"/>
<g>
	<polygon class="st1" points="59.8,636.8 66.4,636.8 66.4,621.8 76,621.8 76,613.5 104.2,613.5 104.2,621.8 113.8,621.8 
		113.8,636.8 120.2,636.8 120.2,567.4 153,567.4 153,551.1 196.8,551.1 196.8,567.4 203,567.4 203,628 238.7,628 238.7,610.8 
		244.9,610.8 244.9,594.5 288.7,594.5 288.7,610.8 303.9,610.8 303.9,573.9 393.4,573.9 393.4,649.5 411.1,649.5 411.1,681.7 
		433.1,681.7 433.1,657.4 502.5,657.4 502.5,681.7 523,681.7 523,628 545.4,606.7 567.8,585.4 567.8,586 568.4,585.4 612.5,628 
		612.5,636.8 619.2,636.8 619.2,621.8 628.8,621.8 628.8,613.5 657,613.5 657,621.8 666.5,621.8 666.5,636.8 673,636.8 673,567.4 
		705.8,567.4 705.8,551.1 749.6,551.1 749.6,567.4 755.8,567.4 755.8,624.5 791.5,624.5 791.5,610.8 797.7,610.8 797.7,594.5 
		829.6,594.5 829.6,565.6 919.1,565.6 919.1,649.5 934,649.5 934,996.4 59.8,996.4 	"/>
	<polygon class="st2" points="870.5,666.8 863.8,666.8 863.8,651.9 854.2,651.9 854.2,643.5 826.1,643.5 826.1,651.9 816.5,651.9 
		816.5,666.8 810,666.8 810,597.4 777.2,597.4 777.2,581.1 733.4,581.1 733.4,597.4 727.3,597.4 727.3,658.1 691.6,658.1 
		691.6,640.8 685.4,640.8 685.4,624.6 641.6,624.6 641.6,640.8 626.3,640.8 626.3,603.9 536.9,603.9 536.9,679.5 519.2,679.5 
		519.2,711.7 497.1,711.7 497.1,687.4 427.8,687.4 427.8,711.7 407.2,711.7 407.2,658.1 384.9,636.8 362.5,615.5 362.5,616 
		361.9,615.5 317.8,658.1 317.8,666.8 311.1,666.8 311.1,651.9 301.5,651.9 301.5,643.5 273.3,643.5 273.3,651.9 263.7,651.9 
		263.7,666.8 257.3,666.8 257.3,597.4 224.5,597.4 224.5,581.1 180.7,581.1 180.7,597.4 174.5,597.4 174.5,654.5 138.8,654.5 
		138.8,640.8 132.6,640.8 132.6,624.6 100.7,624.6 100.7,595.6 11.2,595.6 11.2,679.5 -3.8,679.5 -3.8,1026.4 870.5,1026.4 	"/>
	<polygon class="st3" points="-3.8,740.6 2.9,740.6 2.9,725.6 12.5,725.6 12.5,717.3 40.7,717.3 40.7,725.6 50.3,725.6 50.3,740.6 
		56.7,740.6 56.7,671.2 89.5,671.2 89.5,654.9 133.3,654.9 133.3,671.2 139.5,671.2 139.5,731.8 175.2,731.8 175.2,714.6 
		181.4,714.6 181.4,698.3 225.2,698.3 225.2,714.6 240.4,714.6 240.4,677.7 329.9,677.7 329.9,753.3 347.6,753.3 347.6,785.5 
		369.6,785.5 369.6,761.2 438.9,761.2 438.9,785.5 459.5,785.5 459.5,731.8 481.9,710.5 504.3,689.2 504.3,689.8 504.9,689.2 
		549,731.8 549,740.6 555.7,740.6 555.7,725.6 565.3,725.6 565.3,717.3 593.4,717.3 593.4,725.6 603,725.6 603,740.6 609.5,740.6 
		609.5,671.2 642.3,671.2 642.3,654.9 686.1,654.9 686.1,671.2 692.3,671.2 692.3,728.3 728,728.3 728,714.6 734.1,714.6 
		734.1,698.3 766.1,698.3 766.1,669.4 855.6,669.4 855.6,753.3 870.5,753.3 870.5,1100.2 -3.8,1100.2 	"/>
</g>
<path class="st4" d="M634.1,90.6c-1.1-3.3-4.9-5.7-7.9-4.3c2.5-3.4,1.1-9.1-2.3-11.5c-3.4-2.4-7.9-2-11.5-0.1
	c-3.6,1.9-6.6,5-9.5,8.1c0.2-5.3-6.9-8.8-10.3-5.1c1.2-3.3-1.1-7.2-4.2-8.1c-3.1-1-6.4,0.4-8.9,2.6c4.3-15.7-1.8-34.1-14.3-43
	c-10-7-22.6-8-34.3-6.6c-7.5,0.9-15,2.7-21.4,7.1c-6.8,4.7-11.8,12.1-15.1,20.1c-3.2,7.8-5,16.8-2.4,24.8c-3.5-3.9-9.5-4.7-13.8-2
	c-4.3,2.7-6.7,8.8-5.5,14.1C459.1,90,430.4,94,430.4,94h202l0,0C633.8,93.6,634.6,92,634.1,90.6z"/>
<path class="st4" d="M338.3,478.9c-0.6-2.7-3.1-5.6-4.9-6c-2.6-0.6-5.3,0.4-7.8,1.3c1.4-3.8-3.5-8.1-6.6-5.8
	c-2-7.6-8.4-13.1-15.4-14.7c-7-1.6-14.4,0.5-20.6,4.4c0-11.1-8.6-21.4-18.6-22.1c0.9-2,0.1-4.7-1.7-5.8c-1.8-1-4.3-0.2-5.3,1.8
	c-4.9-12.5-19-18-31.3-16.2c-10.8,1.6-21.4,8.1-26.9,18.4c-5.5,10.4-5.2,24.7,1.9,33.8c-5.1-3.1-11.2-4.9-16.9-3.2
	c-5.7,1.7-10.4,7.7-9.9,14.1c-4.4-6.2-14.3-5.8-18.4,0.6c0.6,1.9,2.2,3.1,4,3.1c17.3,0,34.6,0,51.8,0c30,0,60.1,0,90.1,0
	c7.2,0,14.5,0,21.7,0c2.6,0,12.9,1.4,14.4-1.3C338.5,480.8,338.6,479.9,338.3,478.9z"/>
<path class="st4" d="M752.8,340c3.8-1.2,8-2.2,11.8-0.9c3.8,1.3,7,5.6,6.1,9.9c6.6-3.5,15.7,1.3,17.2,9.2c-6.6-12.2-0.5-29.6,11-36
	c11.5-6.4,26.2-2.9,36.1,6.3c6.8,6.3,11.8,16.8,8.5,25.9c5.2-4.9,14.9-0.3,15.2,7.3c5-4.7,14.3-0.2,14.6,7c2.2-3,6.3-3.4,9.7-2.3
	c3.3,1.2,6.2,3.6,9.2,5.6c10.6,7,31.9,12,44.1,13.5h-242c-9.8,0-12.8-14.8-3.9-19.2c0.1,0,0.2-0.1,0.2-0.1c3-1.2,6.7-1.2,9.1,1.2
	c-4.2-14.6,2.7-32.1,15.3-38.7c12.6-6.6,29.3-1.4,36.9,11.4"/>
<path class="st4" d="M112.7,224c-4-2.7-7.8-5.9-12.3-7.4c-4.5-1.6-10-1-13,3.1c-0.5-9.7-12.8-15.6-19.6-9.4
	c-0.4-10.1-13.4-16.4-20.4-9.7c-20.4-54.3-80.1-28.3-73.1,5.4c-8.2-1.1-15,7.1-11.2,15.8c0.2,0.5,0,1.3-0.6,1.2
	c-10.6-1.5-14.2,10.3-10.6,19.1h219.7C155.4,240.1,126.8,233.3,112.7,224z"/>
<g>
	<path class="st4" d="M-11.1,962.7c-10.4-5.9-3.4-21.7,5.2-29.9c41.6-39.6,102.3-58.7,159.5-50.3s109.6,44.2,137.7,94
		c15.2-53,77-82.7,132.8-78.3s105.7,34.9,150.1,68.4c84.3-95.6,145.2-110.9,186.1-106.2c46.1,5.3,73.3,36.9,131.9,28.4
		c46.9-6.8,64.1-32,90.5-22.8c34.3,12,48,67.7,48.1,100.9c0.3,97.5-19.8,195-58.7,284.6c-13.8,31.9-30.7,63.6-57.5,86.1
		c-26.6,22.3-60.7,33.7-94.6,42c-85.4,20.9-174.1,24.9-262.1,23.7c-160.9-2.2-322.1-22-476.3-67c-61.7-18-123-40.5-175.4-77.3
		c-52.4-36.8-95.4-89.6-109.3-151.5c-19.6-87.4,44.5-157.4,56.6-171.2"/>
</g>
<g class="st5">
	<path class="st4" d="M874.8,885c10.4-5.9,3.4-21.7-5.2-29.9C828,815.6,767.2,796.4,710,804.8s-109.6,44.2-137.7,94
		c-15.2-53-77-82.7-132.8-78.3c-55.7,4.4-105.7,34.9-150.1,68.4c-84.3-95.6-145.2-110.9-186.1-106.2c-46.1,5.3-73.3,36.9-131.9,28.4
		c-46.9-6.8-64.1-32-90.5-22.8c-34.3,12-48,67.7-48.1,100.9c-0.3,97.5,19.8,195,58.7,284.6c13.8,31.9,30.7,63.6,57.5,86.1
		c26.6,22.3,60.7,33.7,94.6,42c85.4,20.9,174.1,24.9,262.1,23.7c160.9-2.2,322.1-22,476.3-67c61.7-18,123-40.5,175.4-77.3
		c52.4-36.8,95.4-89.6,109.3-151.5c19.6-87.4-44.5-157.4-56.6-171.2"/>
</g>
<g class="st6">
	<path class="st4" d="M-10.1,908.1c21.4-19.3,55.4-45.9,102.6-67.4c44.2-20.1,93.8-42.6,153.6-32.4c78.9,13.5,124.9,75.3,137.7,94
		c15.2-53,77-82.7,132.8-78.3s105.7,34.9,150.1,68.4c84.3-95.6,145.2-110.9,186.1-106.2c46.1,5.3,73.3,36.9,131.9,28.4
		c46.9-6.8,64.1-32,90.5-22.8c34.3,12,48,67.7,48.1,100.9c0.3,97.5-19.8,195-58.7,284.6c-13.8,31.9-30.7,63.6-57.5,86.1
		c-26.6,22.3-60.7,33.7-94.6,42c-85.4,20.9-174.1,24.9-262.1,23.7c-160.9-2.2-322.1-22-476.3-67c-61.7-18-123-40.5-175.4-77.3
		c-40.3-28.4-97.6-74.8-109.3-151.5c-13.5-88.5,44.5-157.4,56.6-171.2"/>
</g>
<g class="st6">
	<path class="st4" d="M-3.8,1222.7c26.3-30.2,68.9-45.9,108.9-40.1s76.2,32.9,92.5,69.4c51.4-53.2,153-44.1,193.8,17.4
		c19.5-38.5,65.5-60,109.1-57.4c43.6,2.6,84,26.3,113.3,58.2c-4.7-40.1,19-81.8,56.2-98.9c37.1-17,84.9-8,113,21.3
		c20.1-40.1,47.9-78.4,87.6-100.1c39.7-21.7,93.2-23.1,128.1,5.6c38.1,31.4,43.7,88.5,29.5,135.4c-29.9,41.6-76.4,97.2-144.4,149.1
		c-220.8,168.5-601,246.3-784.1,67.3C66.9,1417.6,13.4,1350.9-3.8,1222.7z"/>
</g>
<g class="st6">
	<path class="st4" d="M923.8,1238.3c-26.3-30.2-68.9-45.9-108.9-40.1c-40,5.8-76.2,32.9-92.5,69.4c-51.4-53.2-153-44.1-193.8,17.4
		c-19.5-38.5-65.5-60-109.1-57.4c-43.6,2.6-84,26.3-113.3,58.2c4.7-40.1-19-81.8-56.2-98.9s-84.9-8-113,21.3
		c-20.1-40.1-47.9-78.4-87.6-100.1c-39.7-21.7-93.2-23.1-128.1,5.6c-38.1,31.4-43.7,88.5-29.5,135.4
		c29.9,41.6,76.4,97.2,144.4,149.1c220.8,168.5,601,246.3,784.1,67.3C853.2,1433.2,906.7,1366.5,923.8,1238.3z"/>
</g>
<g class="st7">
	<path class="st4" d="M-0.1,1039.9c18.5-25.9,57-28.7,82.9-11.3c25.9,17.3,40.2,49.8,44.2,82.1c81.2-41.6,119.8-34,140-19.1
		c22.9,16.8,47,60.9,52.4,68.5l0,0c9.5-3.9,25.5-8.9,45.2-7.6c8,0.5,49.3,3.3,73.8,40c0,0,24.9,36.6,11.7,81.5
		c-1.7,5.7-4.2,11.5-9.1,14.5c-4,2.4-8.7,2.5-13.3,2.5c-155.4,0.5-314.4,0.5-461.1-54.4c-2.5-0.9-3.5-5.6-2.4-6.1
		c0.2-0.1,0.6,0.1,1.1,0.4"/>
</g>
<g class="st7">
	<path class="st4" d="M935.6,998.3c-18.5-25.9-57-28.7-82.9-11.3s-40.2,49.8-44.2,82.1c-81.2-41.6-119.8-34-140-19.1
		c-22.9,16.8-47,60.9-52.4,68.5l0,0c-9.5-3.9-25.5-8.9-45.2-7.6c-8,0.5-49.3,3.3-73.8,40c0,0-24.9,36.6-11.7,81.5
		c1.7,5.7,4.2,11.5,9.1,14.5c4,2.4,8.7,2.5,13.3,2.5c155.4,0.5,314.4,0.5,461.1-54.4c2.5-0.9,3.5-5.6,2.4-6.1
		c-0.2-0.1-0.6,0.1-1.1,0.4"/>
</g>
<rect x="-3.8" y="-7" transform="matrix(-1 -4.421098e-11 4.421098e-11 -1 866.2365 1284)" class="st8" width="873.8" height="1298"/>
</svg>
