<?xml version="1.0" encoding="utf-8"?>
<!-- Generator: Adobe Illustrator 22.1.0, SVG Export Plug-In . SVG Version: 6.00 Build 0)  -->
<svg version="1.1" id="图层_1" xmlns="http://www.w3.org/2000/svg" xmlns:xlink="http://www.w3.org/1999/xlink" x="0px" y="0px"
	 viewBox="0 0 1920 1080" style="enable-background:new 0 0 1920 1080;" xml:space="preserve">
<style type="text/css">
	.st0{fill:#FF931E;}
	.st1{enable-background:new    ;}
	.st2{fill:#014099;}
</style>
<g>
	<g>
		<polygon class="st0" points="829.4,377.3 845,345.6 879.9,340.6 854.6,315.9 860.6,281.1 829.4,297.5 798.1,281.1 804.1,315.9 
			778.8,340.6 813.7,345.6 		"/>
		<polygon class="st0" points="682,275.9 697.6,244.2 732.5,239.2 707.3,214.5 713.2,179.7 682,196.1 650.7,179.7 656.7,214.5 
			631.4,239.2 666.3,244.2 		"/>
		<polygon class="st0" points="495.9,265.6 511.5,234 546.4,228.9 521.1,204.2 527.1,169.4 495.9,185.9 464.6,169.4 470.6,204.2 
			445.3,228.9 480.2,234 		"/>
		<polygon class="st0" points="337.8,350.6 353.4,319 388.3,313.9 363.1,289.2 369,254.4 337.8,270.9 306.5,254.4 312.5,289.2 
			287.2,313.9 322.1,319 		"/>
		<polygon class="st0" points="245.5,504 261.1,472.3 296,467.2 270.8,442.6 276.7,407.8 245.5,424.2 214.2,407.8 220.2,442.6 
			194.9,467.2 229.8,472.3 		"/>
		<polygon class="st0" points="246.5,690.2 262.2,658.6 297.1,653.5 271.8,628.9 277.8,594.1 246.5,610.5 215.3,594.1 221.2,628.9 
			196,653.5 230.9,658.6 		"/>
		<polygon class="st0" points="340.5,842.5 356.1,810.8 391.1,805.7 365.8,781.1 371.8,746.3 340.5,762.7 309.2,746.3 315.2,781.1 
			289.9,805.7 324.9,810.8 		"/>
		<polygon class="st0" points="499.7,925.7 515.3,894 550.2,889 524.9,864.3 530.9,829.5 499.7,846 468.4,829.5 474.4,864.3 
			449.1,889 484,894 		"/>
		<polygon class="st0" points="685.6,913.3 701.2,881.7 736.2,876.6 710.9,851.9 716.9,817.1 685.6,833.6 654.4,817.1 660.3,851.9 
			635,876.6 670,881.7 		"/>
		<polygon class="st0" points="831.8,810.3 847.4,778.6 882.4,773.5 857.1,748.9 863.1,714.1 831.8,730.5 800.6,714.1 806.5,748.9 
			781.2,773.5 816.2,778.6 		"/>
	</g>
</g>
<g class="st1">
	<path class="st2" d="M518.4,585.2v82.5c0,7.5-2.6,13.9-7.8,19.3c-5.2,5.3-11.7,8-19.4,8h-55.6v-43h29.7v-58.3l-27.3,4.1l-7.5-44.7
		l34.8-5.1v-53.2h-31.4v-45.7h31.4v-57.3h53.2v57.3H545v45.7h-26.6v45l21.5-3.1l5.8,44.3L518.4,585.2z M703.2,546.3
		c7.7,0,14.2,2.7,19.4,8c5.2,5.3,7.8,11.8,7.8,19.3v118.7H553.2V573.6c0-7.5,2.7-13.9,8-19.3c5.3-5.3,11.8-8,19.3-8H703.2z
		 M732.6,506.1c0,7.5-2.6,13.9-7.8,19.3c-5.2,5.3-11.7,8-19.4,8H580.8c-7.5,0-13.9-2.7-19.3-8c-5.3-5.3-8-11.8-8-19.3V391.5h50.8
		v33.4l114.6-17l6.8,39.6l-121.4,17.4v24.9h79.8v-25.9h48.4V506.1z M679,603.3v-21.1h-74.7v21.1H679z M679,657.1V636h-74.7v21.1H679
		z"/>
	<path class="st2" d="M924.3,404.6c5.3,5.3,8,11.8,8,19.3v240.4H808.9V423.9c0-7.5,2.7-13.9,8-19.3c5.3-5.3,11.8-8,19.3-8h68.9
		C912.6,396.6,919,399.3,924.3,404.6z M885.6,440.3h-28.3v68.5h28.3V440.3z M885.6,551.8h-28.3v68.9h28.3V551.8z M1071.8,393.2
		c7.7,0,14.2,2.7,19.4,8c5.2,5.3,7.8,11.8,7.8,19.3v245.8c0,7.5-2.6,13.9-7.8,19.3c-5.2,5.3-11.7,8-19.4,8h-66.5V650h41.9v-48.8
		h-54.9L981.8,695l-51.1-5.5l11.3-101.3c2.5-23,3.8-44.7,3.8-65.1V420.5c0-7.5,2.7-13.9,8-19.3c5.3-5.3,11.8-8,19.3-8H1071.8z
		 M1047.3,519h-50.1v1c0,15-0.5,28.4-1.4,40.2h51.5V519z M1047.3,439.3h-49.8l-0.3,8.9v30h50.1V439.3z"/>
	<path class="st2" d="M1479.6,691.6h-306.9v-40.2h130.6v-19.8h-113.5v-26.9l-23.9-10.2l38.2-74.7h-5.8V418.8c0-7.5,2.7-13.9,8-19.3
		c5.3-5.3,11.8-8,19.3-8h201.2c7.5,0,13.9,2.7,19.3,8c5.3,5.3,8,11.8,8,19.3v100.9H1213l45,11.6l-3.1,6.1h49.1v-11.6h55.2v11.6
		h110.1v38.2h-110.5V594h103.7v37.5h-104v19.8h121V691.6z M1303.7,575.6h-66.8L1228,594h75.7V575.6z M1251.5,441.6h149.3v-13.3
		h-149.3V441.6z M1400.8,469.6h-149.3v13.3h149.3V469.6z"/>
</g>
<g class="st1">
	<path class="st2" d="M1021.2,870.8h-26.5l-5.8-18.5h-28.5l-5.2,18.5h-22l29.6-94.7h24.5L1021.2,870.8z M965.5,834.2h17.7l-9.2-29.5
		L965.5,834.2z"/>
	<path class="st2" d="M1098.5,808v-18.6c0-3.8,1.3-6.9,4-9.5c2.6-2.6,5.8-3.9,9.4-3.9h53.7l-0.8,22.6l-46.9-3.3l0.8,11.3l38.9,16.2
		c2.5,1,4.5,2.6,6,4.9c1.5,2.3,2.3,4.8,2.3,7.4v22.2c0,3.7-1.3,6.8-4,9.4c-2.6,2.6-5.8,4-9.4,4l-54.4,0.1l0.8-21.3l47.3,2.3l0.7-11
		l-41.1-20.9c-2.2-1.2-4-2.8-5.3-5C1099.1,812.8,1098.5,810.5,1098.5,808z"/>
	<path class="st2" d="M1189.6,776.5h73.7v19.2h-26l1.1,75.7h-25.5l1.1-75.7h-24.4V776.5z"/>
	<path class="st2" d="M1375.1,870.8h-26.5l-5.8-18.5h-28.5l-5.2,18.5h-22l29.6-94.7h24.5L1375.1,870.8z M1319.4,834.2h17.7
		l-9.2-29.5L1319.4,834.2z"/>
	<path class="st2" d="M1454.2,836.2l18,35.5h-23.9l-16.8-35.5h-11.4v35.5h-21.4v-82.8c0-3.6,1.3-6.6,3.9-9c2.6-2.4,5.7-3.5,9.2-3.3
		l43.1,2.5c3.2,0.2,5.9,1.5,8.2,3.8c2.2,2.4,3.3,5.2,3.3,8.5v32.4c0,3.4-1.2,6.3-3.6,8.7S1457.6,836.2,1454.2,836.2z M1420.2,795.2
		v22.9h26.7V796L1420.2,795.2z"/>
</g>
</svg>
