<?xml version="1.0" encoding="utf-8"?>
<!-- Generator: Adobe Illustrator 22.1.0, SVG Export Plug-In . SVG Version: 6.00 Build 0)  -->
<svg version="1.1" id="图层_1" xmlns="http://www.w3.org/2000/svg" xmlns:xlink="http://www.w3.org/1999/xlink" x="0px" y="0px"
	 viewBox="0 0 1920 519" style="enable-background:new 0 0 1920 519;" xml:space="preserve">
<style type="text/css">
	.st0{fill:#4D4D4D;}
</style>
<g>
	<path class="st0" d="M115.9,184.3c0.5,1.4,0.8,2.9,0.8,4.3c0,1.3-0.2,2.7-0.6,4.1c-0.4,1.4-1.3,2.9-2.7,4.3
		c-5.3,4.8-9.9,9-13.7,12.6c-3.8,3.6-7.2,6.6-10,9.1c-2.9,2.5-5.3,4.3-7.2,5.6c-2,1.2-3.6,1.9-5.1,1.9c-2.5,0-4.5-0.3-5.9-0.9
		c-1.5-0.6-2.6-1.5-3.4-2.6c-0.8-1.2-1.3-2.6-1.6-4.3c-0.3-1.7-0.5-3.6-0.6-5.9c-0.1-0.9-0.1-2.8,0-5.8c0.1-2.9,0.3-6.4,0.5-10.5
		c0.2-4.1,0.4-8.6,0.7-13.5c0.3-4.9,0.5-9.8,0.8-14.7c0.6-11.6,1.4-24.4,2.3-38.6c0.1-0.8,0.1-1.6,0-2.3c-0.3-0.5-0.7-1-1.3-1.5
		c-0.6-0.5-1.6-0.7-3-0.7c-2.1,0-4.2,0-6.2,0c-2.1,0-4.2,0.1-6.2,0.2h-0.8c-2.2,0-4-0.7-5.3-2.2c-1.3-1.5-2.3-3.2-2.9-5
		c-0.7-1.8-1.1-3.6-1.3-5.4c-0.2-1.8-0.3-3-0.3-3.6l32.8-3.1h0.6c0.8,0,2,0.1,3.8,0.4c1.8,0.3,3.6,1,5.5,2.2
		c1.9,1.2,3.5,3.1,4.9,5.6c1.4,2.5,1.9,5.9,1.7,10.3c-0.4,5.5-0.8,11.4-1.3,17.9c-0.5,6.5-0.9,12.7-1.5,18.7
		c-0.5,6-0.9,11.3-1.3,16.1c-0.3,4.7-0.6,8.1-0.9,10c-0.3,2.3-0.3,3.9,0,4.7c0.3,0.8,0.6,1.2,1.2,1.2c0.5,0,1-0.4,1.6-1.2
		c0.4-0.3,0.7-0.6,1-1l17.9-17.7L115.9,184.3z M75.9,101.1L54.9,69.5c1.4-1.2,2.9-2.2,4.3-3.1c1.4-0.8,3-1.5,4.6-2.1
		c1.6-0.6,3.3-1,5-1c2.5,0,4.5,0.8,6,2.3c1.8,1.6,3.3,2.9,4.4,3.9c1.1,1,2,2,2.8,2.8c0.8,0.8,1.5,1.7,2.2,2.5c0.7,0.8,1.6,1.9,2.6,3
		c2.2,2.6,3.2,5,2.8,7.3c-0.3,2.3-1.1,4.3-2.2,6.1c-1.4,2.2-3.4,4.2-5.8,6L75.9,101.1z M217.1,211.8c-0.1,2.1-0.7,4-1.6,5.9
		c-0.8,1.4-2,2.9-3.8,4.3c-1.8,1.4-4.3,2.3-7.7,2.7c-2.5,0.3-6.7,0.5-12.6,0.7c-5.9,0.2-13,0.4-21.2,0.5c-8.2,0.1-17.2,0.3-27,0.6
		c-9.8,0.3-19.8,0.6-29.9,1.2c-2.6,0.1-4.6-0.7-5.9-2.3c-1.3-1.7-2.3-3.6-2.9-5.8c-0.8-2.5-1.2-5.3-1.2-8.6l41.1-2.9l3.5-150
		c0.3,0,0.5-0.1,0.8-0.2h1.9c1.3,0,2.8,0.1,4.6,0.3c1.8,0.2,3.4,0.6,5.1,1.1c1.6,0.5,3,1.3,4.2,2.3c1.2,1,1.8,2.5,1.8,4.3
		c0.4,5.2,0.7,12.3,1,21.2c0.3,8.9,0.5,18.6,0.8,29.2l43.3-7.4v10.9c0,2.2-0.5,4.2-1.4,6c-0.8,1.6-2,3.1-3.8,4.5
		c-1.8,1.4-4.3,2.4-7.7,2.9l-30,3.5l1.4,69.6l47.4-3.3L217.1,211.8z"/>
	<path class="st0" d="M308.6,70.8c-3.8,5.6-7.5,11.4-11.1,17.4c-3.6,6-7.2,11.8-10.5,17.4c0,4.7,0,10.4,0.1,17.2
		c0.1,6.8,0.1,13.9,0.2,21.4c0.1,7.5,0.1,15,0.1,22.7c0,7.7,0,14.8,0,21.3c0,6.5,0,12.2,0,17c0,4.8-0.1,8.1-0.2,9.8
		c-0.1,3.1-0.7,5.6-1.8,7.3c-1,1.8-2.3,3-3.7,3.8c-1.4,0.9-3.1,1.5-5.1,1.8l-14.8,1l6-92.2c-1,1.8-2.5,3.3-4.5,4.5
		c-2,1.2-4,1.8-6,1.8c-1.3,0-2.5-0.2-3.5-0.5c-1-0.3-2-0.7-2.9-1.1c-0.9-0.5-1.8-1-2.5-1.6l-8.6-5.1L299.2,55
		c2.6,1.7,4.7,3.4,6.4,5.1c1.6,1.6,2.8,3.3,3.6,5.2C310.1,67.2,309.9,69,308.6,70.8z M398.3,119.6c-1.6,0.1-4.2,0.3-7.9,0.5
		c-3.7,0.2-8.1,0.4-13.1,0.6c-5,0.2-10.5,0.4-16.5,0.5c-6,0.1-12.1,0.3-18.3,0.6c-2.1,10.7-4.3,21.5-6.6,32.6
		c-2.3,11.1-4.5,21.2-6.4,30.5c-2,9.3-3.6,17.2-5.1,23.6c-1.4,6.4-2.4,10.4-2.9,11.8c-0.5,1.8-1.3,3.2-2.2,4.3c-1,1-2,1.9-3,2.4
		c-1,0.6-2.1,1-3.2,1.2c-1.1,0.2-2.1,0.3-3,0.3c-1.2,0-2-0.1-2.3-0.2c-0.4,0-0.7-0.1-1-0.2l-12.5-1.2l27.3-104.3l-16.6,0.6
		c-1.8,0-3.2-0.7-4.1-2.1c-0.9-1.4-1.6-3.1-2.1-4.9c-0.5-2.1-0.8-4.4-1-7l28.1-3.1L338.8,56c2.9,0.4,5.4,1,7.6,1.8
		c1.8,0.7,3.4,1.6,4.9,2.9c1.4,1.3,2,3,1.8,5.1c-0.7,3.9-1.6,9.2-2.8,15.8c-1.2,6.6-2.6,14-4.2,22.2l64.5-7v11.7
		c-0.3,1.8-0.8,3.5-1.8,5.1c-0.8,1.3-2,2.5-3.6,3.7C403.6,118.4,401.3,119.2,398.3,119.6z M416,205c1,3.8,1,7.2-0.2,10.3
		c-0.9,2.6-3.1,5.1-6.4,7.4c-3.4,2.3-8.9,3.7-16.6,4.1c-2.9,0.1-5.6,0.2-8.2,0.2c-2.6,0-5,0-7.2,0c-4.6,0-8.4,0-11.6-0.1
		c-3.2-0.1-5.8-0.1-7.9-0.1c-3.6,0-6.4-0.8-8.2-2.4c-1.8-1.6-3.1-3.3-3.9-5.2c-0.9-2.3-1.3-4.9-1.2-7.8l7.2-80.7h11.7
		c3.1,0,5.4,0.6,6.8,1.9c1.4,1.2,2.4,2.6,2.9,4c0.5,1.7,0.6,3.6,0.4,5.9c-1.9,9.4-3.7,18-5.3,25.9c-0.7,3.4-1.3,6.8-1.9,10.1
		c-0.7,3.4-1.2,6.5-1.8,9.5c-0.5,2.9-0.9,5.5-1.3,7.7c-0.3,2.2-0.5,3.8-0.5,4.9c0,3.5,0.8,5.8,2.3,6.8c1.6,1,3.6,1.6,6.2,1.6
		c0.6,0,1.3,0,2-0.1c0.6-0.1,1.3-0.1,1.9-0.1c5.6-0.3,10.6-1.1,15-2.6c4.4-1.5,8.1-3.1,11.1-4.8c3.6-2,6.9-4.1,9.8-6.4L416,205z
		 M393.8,86.8c-3.4,3.4-5.8,5.6-7.2,6.6c-0.8,0.7-1.4,1.1-1.8,1.4l-22-28.9c1.2-1.2,2.5-2.2,3.9-3.1c1.2-0.8,2.5-1.5,4-2.1
		c1.5-0.6,3-1,4.6-1c1.8,0,3.5,0.6,5.1,1.8l13.8,11.1c1.4,1.2,2.4,2.5,2.9,3.9c0.5,1.3,0.6,2.8,0.4,4.5
		C397.2,82.7,396,84.6,393.8,86.8z"/>
	<path class="st0" d="M611.4,135.6l-6.8,10.1c-0.7,1.2-1.4,2.1-2.3,2.9c-0.8,0.8-1.8,1.5-2.9,2.1c-1.2,0.7-2.5,1-4.1,1
		c-0.8,0-1.6-0.1-2.5-0.3c-0.9-0.2-1.9-0.6-2.9-1.3c-2.1-1.2-4.7-2.7-7.8-4.5c-3.1-1.8-6.6-4-10.5-6.4c1,1.4,1.6,3.2,1.6,5.3
		c0,2.1-0.7,4.6-2.1,7.4c-2.1,3.9-3.8,7.1-5.3,9.5c-1.4,2.4-2.4,4.3-3,5.7c-0.6,1.4-0.7,2.3-0.2,2.8c0.5,0.5,1.5,0.8,3,0.8h0.6
		c1.8,0,3.8-0.1,5.9-0.2c2.1-0.1,4.1-0.3,5.9-0.4c1.9-0.1,4.1-0.3,6.7-0.6h1.2c0.9,0,2.1,0.1,3.5,0.4c1.4,0.3,2.8,0.8,4,1.8
		c1.2,0.9,2.1,2.3,2.7,4.1c0.6,1.8,0.4,4.3-0.5,7.4l-8.2,39c-0.5,1.7-1.2,3.2-2.1,4.5c-0.8,1-1.9,2-3.3,2.9
		c-1.4,0.9-3.3,1.4-5.7,1.4c-1.4,0-2.9-0.2-4.5-0.6c-0.8-0.1-2.4-0.5-5-1c-2.5-0.5-5.4-1.1-8.7-1.8c-3.3-0.7-6.7-1.3-10.3-2
		c-3.6-0.7-7.1-1.4-10.2-2c-3.2-0.7-5.9-1.2-8.2-1.8c-2.3-0.5-3.7-0.8-4.2-1c-1.6-0.7-2.7-1.4-3.3-2.3c-0.7-0.9-1-1.9-1.2-2.9
		c-0.3-1.2-0.3-2.4,0-3.7l3.7-9.4l37.6,8c0.1,0.1,0.3,0.2,0.6,0.2c0.3,0.1,0.8,0.2,1.6,0.2c0.9,0,1.9-0.2,2.9-0.7
		c1-0.5,1.9-1.5,2.5-3c0.4-1,0.9-2.4,1.5-4c0.6-1.6,1.1-3.3,1.7-5.1c0.5-1.8,1-3.4,1.5-5.1c0.5-1.6,0.8-3,1.1-4
		c0.4-1,0.4-1.8,0.1-2.3c-0.3-0.5-0.7-0.9-1.3-1.2c-0.7-0.4-1.4-0.6-2.3-0.6c-3.5,0.4-6.8,0.8-9.9,1.2c-2.7,0.4-5.5,0.7-8.2,1
		c-2.7,0.3-4.8,0.5-6.2,0.8c-0.7,0-1.2,0-1.7,0.1c-0.5,0.1-1,0.1-1.7,0.1c-1.7,0-3.3-0.2-4.8-0.5c-1.5-0.3-2.6-1-3.4-2.1
		c-0.8-1.1-1-2.6-0.8-4.5c0.3-1.9,1.3-4.4,3.1-7.5l9-15c0.6-1.2,1.1-2.2,1.4-3.1c0.1-0.8,0-1.5-0.4-2.1c-0.4-0.6-1.4-1-2.9-1
		c-0.3,0-0.6,0-0.9,0.1c-0.3,0.1-0.6,0.1-0.9,0.1c-1.7,0.1-4.1,0.4-7.2,0.8c-3.1,0.4-6.6,0.8-10.5,1.4c-3.9,0.5-8.1,1-12.6,1.6
		c-4.5,0.5-8.9,1-13.4,1.6c-0.1,0.1-0.2,0.3-0.2,0.4c-2.6,6.1-5.2,12.5-7.8,19.2c-2.6,6.7-5.1,13-7.4,19s-4.5,11.3-6.3,16.1
		c-1.9,4.7-3.4,8.2-4.6,10.4c-1.6,3.1-3.5,5.2-5.8,6.1c-2.3,1-4.3,1.5-6.1,1.5c-0.7,0-1.2,0-1.7-0.1c-0.5-0.1-0.9-0.1-1.3-0.1
		c-0.4-0.1-0.8-0.3-1.2-0.4l-12.9-4.5l34.3-65.9H478c-2.5,0-4.4-0.4-5.9-1.1c-1.4-0.7-2.5-1.5-3.1-2.4c-0.8-1-1.3-2.2-1.6-3.5
		l-0.8-5.1c-0.7,1-1.3,2.1-1.9,3.1c-0.7,1-1.4,2.1-2.1,3.3c-1,1.8-2.2,3.1-3.5,3.7c-1.3,0.7-2.6,1-3.9,1c-1,0-2-0.2-2.9-0.5
		c-0.9-0.3-1.8-0.7-2.5-1.1c-0.8-0.4-1.6-0.8-2.3-1.4l-9-5.7l27.5-39.2l-19.5,1H446c-2,0-3.5-0.7-4.8-2c-1.2-1.4-2.2-2.9-2.9-4.7
		c-0.7-1.8-1.2-3.5-1.5-5.3c-0.3-1.8-0.4-2.9-0.4-3.4l74.9-5.3l0.2-12.1c-5.6,0.1-11,0.3-16.3,0.5c-5.3,0.2-10.2,0.4-14.8,0.6
		c-4.6,0.2-8.8,0.4-12.6,0.6c-3.8,0.2-6.8,0.4-9.2,0.5h-0.4c-2,0-3.5-0.7-4.8-2c-1.2-1.4-2.2-2.9-2.9-4.7c-0.7-1.8-1.2-3.5-1.4-5.3
		c-0.2-1.8-0.3-2.9-0.3-3.4l145.5-10.9l0.4,10.5c0,0.8-0.1,1.6-0.2,2.3c-0.1,0.7-0.4,1.4-0.7,2.2c-0.3,0.8-0.8,1.7-1.5,2.4
		c-1,1.3-2.3,2.2-3.9,2.8s-3.3,0.9-5.3,1.1c-1.8,0.1-4.5,0.3-8.1,0.5c-3.6,0.2-7.8,0.4-12.6,0.6c-4.8,0.2-10,0.4-15.7,0.5
		c-5.7,0.1-11.5,0.3-17.5,0.6c0.1,2.1,0.3,4,0.4,5.8c0.1,1.8,0.3,3.6,0.4,5.6l77.6-5.7l0.2,10.5c0,0.8-0.1,1.6-0.2,2.3
		c-0.3,1.8-1,3.4-2.1,4.9c-1.9,2.2-5,3.4-9.2,3.7c-2.7,0.3-7.9,0.6-15.4,0.9c-7.5,0.3-16.4,0.7-26.5,1.1L611.4,135.6z M470.6,140.4
		c3.8-0.3,9.3-0.6,16.6-1.1c7.3-0.5,14.9-0.9,23-1.5l0.6-29.1c-4,0.3-8,0.4-11.8,0.5c-3.8,0.1-7.6,0.2-11.2,0.5
		c-4.3,7.2-7.7,13-10.1,17.6C475.2,132.1,472.8,136.4,470.6,140.4z M558.8,134.8c1,0,2.1,0,3.2,0c1.1,0,2.2,0.1,3.2,0.4
		c-5.1-3.2-10.4-6.7-15.9-10.3c-5.5-3.6-11.1-7.3-16.9-11.1l1.4,21.6v1c5.6-0.4,10.6-0.7,15-1C553.2,135.1,556.5,134.9,558.8,134.8z
		"/>
	<path class="st0" d="M712.2,88.4c-0.1,17.7-0.2,33.9-0.2,48.7c0,14.8,0,27.7,0.1,38.7c0.1,11.1,0.1,20,0.2,26.8
		c0.1,6.8,0,11.1-0.1,13c-0.3,3.8-1.4,6.3-3.5,7.7c-2.1,1.4-4.8,2-8.2,2h-13.3c0.1-1.2,0.2-2.3,0.2-3.5s0.1-2.3,0.2-3.5l-28.3,1.4
		c-0.9,1.4-2,2.5-3.2,3.2c-1.2,0.7-2.4,1.3-3.6,1.7c-1.4,0.4-2.9,0.6-4.3,0.8H636l0.6-119.7c-0.7-0.3-1.2-0.5-1.8-0.7
		c-0.5-0.2-0.9-0.4-1.2-0.5l-8-6.6L668,57l1,0.4c1.8,1.6,3.2,2.9,4.3,4.1c1,1.2,2,2.5,2.9,3.9c0.9,1.4,1.4,2.9,1.6,4.3
		c0.3,1.6-0.1,2.9-1.2,4.1c-1,1.3-2,2.5-2.9,3.7c-0.9,1.2-1.8,2.3-2.7,3.3l28.7-3.7c3.6,0,6.7,0.9,9.1,2.7
		C711,81.6,712.2,84.5,712.2,88.4z M688.6,199.3c0.6-14,1.3-29,2-44.9c0.7-15.9,1.4-33.5,2-52.7c0.1-1.2,0-2.1-0.3-2.8
		c-0.3-0.7-0.8-1.3-1.4-1.7c-0.6-0.4-1.2-0.6-1.8-0.8c-0.6-0.1-1.1-0.2-1.7-0.2h-1.2c-3.4,0.7-6.8,1.3-10.3,2c-3,0.7-6.3,1.3-10,1.9
		s-7.3,1.2-10.8,1.9c0.3,4.8,0.6,10.8,0.9,17.8c0.3,7.1,0.7,14.7,1.1,22.9l27.7-4.1l-0.2,10.5c-0.1,2.2-0.6,4.2-1.4,5.8
		c-0.8,1.6-2,3-3.6,4.2c-1.6,1.2-3.9,2-6.9,2.2l-14.6,1l2.1,41L688.6,199.3z M793.9,72.6c3.6,0,6.7,0.9,9.3,2.7
		c2.5,1.8,3.8,4.7,3.8,8.8c-0.4,12.4-0.8,24.1-1.2,35.1c-0.4,11.1-0.8,22-1.2,32.8c-0.4,10.8-0.8,21.7-1.3,32.8
		c-0.5,11.1-1,22.7-1.7,35.1c0,1.7-0.4,3.1-1.2,4.1c-0.8,1-1.7,1.8-2.8,2.3c-1.1,0.5-2.3,0.9-3.5,1.1c-1.2,0.2-2.4,0.3-3.4,0.3h-2.1
		c-0.4-0.1-0.7-0.2-1-0.2c-7.2-1.4-13.7-2.8-19.7-4.1c-5.2-1-10.2-2.1-15-3.2c-4.8-1.1-8.1-2-9.9-2.6c-1.8-0.5-3.1-1.3-3.7-2.3
		c-0.7-1-1-2.1-1.2-3.1c-0.1-1.2,0-2.5,0.4-3.9l3.5-8.6l25.5,5.8c0.4,0.1,0.8,0.3,1.4,0.4c0.4,0,0.8,0,1.3,0.1
		c0.5,0.1,1,0.1,1.7,0.1c1.8,0,3.6-0.4,5.4-1.3c1.8-0.8,2.8-2.6,3-5.4c1-9.6,1.9-18.3,2.5-26c0.6-7.7,1.3-15.4,1.9-23.1
		c0.6-7.7,1.2-15.8,1.9-24.3c0.7-8.5,1.5-18.4,2.4-29.5c0.3-2.2-0.3-3.6-1.7-4.3c-1.4-0.6-2.6-1-3.6-1h-1.2
		c-0.1,0.1-0.3,0.2-0.4,0.2l-35.3,5.1c-0.7,1.9-1.3,3.7-1.9,5.4c-0.6,1.6-1.3,3.3-2.2,5.2c-1.6,3.5-3.6,5.8-6,6.7
		c-2.5,1-4.6,1.5-6.4,1.5c-1,0-1.8-0.1-2.1-0.2c-0.3,0-0.5,0-0.8,0l-10.9-3.7l29.6-56.7c2.6,0.9,4.7,2.1,6.4,3.5
		c1.6,1.3,2.8,2.9,3.8,4.8c1,1.9,1,4.1,0.1,6.7c-0.5,1.3-1,2.6-1.4,3.8c-0.4,1.2-0.8,2.4-1.2,3.4L793.9,72.6z M750.6,174.6
		l-26.3-43.3c0.1-0.1,0.6-0.5,1.5-1.1c0.8-0.6,1.9-1.2,3.1-1.9c1.2-0.6,2.6-1.2,4.2-1.8c1.6-0.5,3.1-0.8,4.5-0.8
		c1.7,0,3,0.4,3.9,1.2c3,3.6,5.5,6.8,7.6,9.6c2.1,2.7,4.4,5.7,6.8,9c2.5,3.3,4.7,6.4,6.6,9.4c1.6,1.7,2.4,3.3,2.4,4.7
		c0.1,1.4-0.2,2.7-0.7,3.9c-0.7,1.3-1.6,2.5-2.9,3.5L750.6,174.6z"/>
	<path class="st0" d="M999.8,214.9c-1.3,0.8-3,1.8-5,3.1c-2,1.3-4.1,2.5-6.3,3.7c-2.2,1.2-4.4,2.2-6.5,3c-2.1,0.8-4,1.3-5.6,1.3
		c-1.8,0-3.4-0.3-4.7-1c-1.3-0.7-2.5-1.3-3.5-2c-1.2-0.9-2.1-1.9-2.9-3.1c-8.6-12.6-16.5-24.4-23.8-35.3c-3.1-4.7-6.3-9.4-9.6-14.1
		c-3.3-4.7-6.3-9.2-9.3-13.5c-2.9-4.2-5.5-8-7.8-11.4c-2.3-3.4-4.1-6-5.6-8c-6.2,9.5-12.4,18.9-18.6,28.4c-6.2,9.4-11.8,18-17,25.7
		c-5.1,7.7-9.5,14.2-13.1,19.4c-3.6,5.2-5.9,8.4-6.9,9.6c-1.4,1.7-2.9,2.8-4.5,3.4s-3.1,0.9-4.5,0.9c-2.3,0-4.4-0.5-6.2-1.4
		c-0.9-0.4-1.8-0.8-2.5-1.4l-11.7-6.4L938.8,61.5c2.6,1.6,4.8,3.2,6.6,4.9c1.6,1.4,2.8,3.1,3.6,5c0.8,1.9,0.7,3.7-0.5,5.6
		l-28.9,44.9L999.8,214.9z"/>
	<path class="st0" d="M1025.8,221.8v-31c0.3-1.3,0.7-2.5,1.4-3.5c0.6-0.8,1.7-1.5,3-2.2c1.4-0.7,3.2-1.1,5.4-1.1h3.1
		c3.8,0,6.7,0.3,8.9,0.9c2.1,0.6,2.8,2.2,1.9,4.8c-0.5,1.4-1,3.8-1.5,7.1c-0.5,3.3-1,6.7-1.6,10.2c-0.6,3.5-1.3,6.7-2,9.6
		c-0.8,2.9-1.7,4.6-2.7,5.3c-1.3,0.6-3,1.2-5.1,1.8c-2.1,0.5-4,0.8-5.8,0.8c-1.4,0-2.6-0.2-3.5-0.6
		C1026.2,223.3,1025.8,222.7,1025.8,221.8z"/>
	<path class="st0" d="M456.4,447.9c1.6,3,2.6,5.8,3.1,8.4c0.5,2.2,0.6,4.4,0.3,6.6c-0.3,2.2-1.7,3.9-4,5.1
		c-5.3,2.6-9.8,4.9-13.6,6.8s-7,3.6-9.9,5.1c-2.9,1.4-5.6,2.7-8,3.9c-2.4,1.2-4.9,2.3-7.5,3.5c-2.7,1.2-5.1,1.8-7,1.8
		c-1.8,0-3.4-0.3-4.7-1c-1.3-0.7-2.3-1.4-3.1-2.1c-1-0.9-1.9-2-2.5-3.1l-5.1-9.8l21.3-8.6l2-66.7c-1.8,0.1-3.8,0.3-5.9,0.5
		c-2.1,0.2-4.4,0.4-7,0.7h-0.4c-2.5,0-4.4-0.9-5.7-2.7c-1.3-1.8-2.3-3.8-2.9-6c-0.7-2.5-1-5.3-1.2-8.6l23.4-3.1l1.4-46
		c1.4,0,3.1,0.1,5.1,0.2c2,0.1,3.8,0.4,5.7,0.9c1.8,0.5,3.4,1.2,4.7,2.3c1.3,1.1,2,2.6,2.1,4.6c0,6.1,0,12.1,0,17.8
		c0,5.8,0.1,11.7,0.2,17.6l21.1-2.7v8.6c0,2-0.5,3.8-1.6,5.5c-0.8,1.4-2,2.8-3.8,4.2c-1.8,1.4-4.3,2.3-7.7,2.8
		c-1.6,0.3-2.9,0.5-4,0.6c-1.1,0.1-2.3,0.3-3.6,0.6c0.3,9,0.5,18.3,0.8,28c0.3,9.7,0.5,20.2,0.8,31.5L456.4,447.9z M570.6,404.8
		c0,2.2-0.5,4.2-1.4,5.9c-0.7,1.6-1.8,3-3.5,4.3c-1.7,1.3-4.1,2.1-7.2,2.3c-1.7,0-4.6,0.1-8.6,0.3c-4,0.2-8.8,0.4-14.3,0.7
		c-5.5,0.3-11.5,0.6-18,0.9c-6.5,0.3-13.1,0.7-19.8,1.1c-6.7,0.4-13.2,0.8-19.6,1.3c-6.4,0.5-12.2,0.9-17.4,1.3
		c-1.8,0-3.2-0.8-4.1-2.5c-0.9-1.7-1.5-3.6-1.8-5.7c-0.3-2.5-0.3-5.3,0-8.4l28.7-2.9l-9.6-21.8c1.3-0.8,2.6-1.5,3.9-2.1
		c1.2-0.6,2.5-1.2,3.9-1.6c1.4-0.4,2.8-0.6,4.1-0.6c2.3,0,4.1,0.8,5.3,2.3c1.6,1.9,2.7,3.4,3.4,4.5c0.7,1,1.3,1.9,1.9,2.6
		c0.5,0.7,1,1.5,1.6,2.2c0.5,0.8,1.2,1.9,2.1,3.3c1.3,1.8,2.1,3.5,2.5,5.1c0.4,1.6,0.5,2.9,0.4,4.1l18.3-2l12.1-28.5
		c-4.3,0.1-9.1,0.4-14.5,0.7c-5.4,0.3-11.1,0.7-17,1c-5.9,0.3-11.9,0.7-17.9,1.1s-11.9,0.8-17.5,1.2c-1.8,0.1-3.2-0.6-4.1-2.3
		c-0.9-1.7-1.5-3.6-1.8-5.8c-0.3-2.5-0.3-5.3,0-8.4l39.4-4.3l-8.4-16.4c1.6-1,3.1-2,4.7-2.7c1.3-0.6,2.7-1.3,4.3-1.9
		c1.6-0.6,3.1-0.9,4.5-0.9c2.1,0,3.5,0.6,4.3,1.8c1.6,1.8,2.8,3.3,3.8,4.5c1,1.2,1.9,2.2,2.6,3.2c0.8,1,1.5,1.9,2.2,2.8
		c0.7,0.9,1.6,2.1,2.6,3.5c0.5,0.7,0.9,1.2,1.3,1.8c0.3,0.5,0.6,1.1,0.9,1.8l37.4-4.1v10.5c-0.1,2.2-0.6,4.2-1.4,6
		c-0.8,1.4-2,2.8-3.7,4.1c-1.7,1.3-4.1,2.1-7.2,2.3c-1.3,0.1-3.1,0.2-5.5,0.3c-2.3,0.1-5.1,0.2-8.2,0.3l9.6,4.5
		c1.8,0.9,3.2,2.1,4.1,3.7c0.6,1.3,1,2.9,1,4.9s-1,4.4-2.9,7.2l-3.9,6l28.3-2.9V404.8z M542,425.7c0.5-0.1,1-0.2,1.6-0.2
		c0.5-0.1,1.1-0.2,1.8-0.2c0.6,0,1.3,0,2,0c1.4,0,3,0.1,4.6,0.4c1.6,0.3,3.1,0.8,4.5,1.8c1.4,0.9,2.5,2.1,3.3,3.7
		c0.8,1.6,1.2,3.6,1.1,6.2c-0.3,3.1-0.7,7.3-1.2,12.7c-0.5,5.3-1,10.8-1.5,16.3c-0.5,5.5-0.9,10.6-1.3,15.1c-0.4,4.5-0.7,7.5-0.8,9
		c-0.1,2.3-0.7,4.1-1.9,5.3c-1.1,1.2-2.4,2.1-3.8,2.7c-1.7,0.6-3.5,1-5.5,1.2l-13.7,0.2l1-6.8l-32.4,1.4c-0.3,1.2-1,2.3-2.1,3.3
		c-1.2,1-3.3,1.6-6.2,1.8c-2.5,0.1-4.9,0.2-7.4,0.2c-2.5,0-4.9,0-7.4,0l-6.2-70.4h11.7c1,0,2.1,0.1,3.1,0.2c0.8,0.3,1.6,0.6,2.5,1
		c0.9,0.4,1.7,1,2.3,1.8L542,425.7z M534.6,477.2l3.9-27.1c0.1-1.3,0.1-2.5-0.2-3.5c-0.3-0.9-0.7-1.7-1.5-2.4
		c-0.7-0.7-1.9-1.1-3.4-1.1h-0.6c-1.3,0.1-3.4,0.4-6.4,0.9c-3,0.5-6.3,1-10,1.7c-3.7,0.7-7.5,1.3-11.5,2c-4,0.7-7.6,1.4-11,2
		c0.8,4.8,1.5,9.9,2.2,15.4c0.7,5.5,1.4,10.3,2,14.4L534.6,477.2z"/>
	<path class="st0" d="M768,434.1l-8,10.3c-0.9,1.3-1.9,2.5-2.9,3.5c-1,0.9-2.2,1.7-3.6,2.4c-1.4,0.7-3,1.1-4.8,1.1
		c-1.8,0-3.6-0.5-5.5-1.4c-2.2-1-4.5-2.3-6.8-3.8c-2.3-1.5-5.1-3.4-8.4-5.7c-3.3-2.3-7.2-5-11.9-8.1c-4.7-3.1-10.5-6.7-17.5-10.7
		c-9.1,0.5-18.5,1-28.3,1.5c-9.8,0.5-19.1,0.9-28.1,1.3c-4.9,8.2-9.4,15.3-13.3,21.5c-3.9,6.1-6.6,10-8.2,11.7
		c-1.4,1.6-2.8,2.6-4.2,3.2c-1.4,0.6-2.8,0.9-4.2,0.9c-1.2,0-2.3-0.2-3.3-0.5c-1-0.3-2-0.7-2.7-1.1c-0.9-0.4-1.8-0.8-2.5-1.4
		l-11.1-6.2l20.1-26.7l-11.9,0.6h-0.4c-2.2,0-3.8-0.8-4.9-2.5c-1-1.7-1.8-3.6-2.1-5.9c-0.5-2.3-0.8-5.1-0.8-8.2l34.5-2.9l7.6-9.9
		c-2.1,0.1-4,0.3-5.8,0.4c-1.8,0.1-3.5,0.3-5.2,0.4c-1.8,0.1-3.3-0.6-4.3-2.2c-1-1.6-1.8-3.4-2.3-5.4c-0.7-2.2-1.1-4.8-1.4-7.8
		l32.6-3.5l5.7-7.6c-9,0.7-17.4,1.2-25.4,1.8c-7.9,0.5-14.4,1-19.3,1.4c-1.8,0.1-3.3-0.6-4.3-2.2c-1-1.6-1.9-3.4-2.5-5.4
		c-0.7-2.3-1-5-1.2-8l31.6-3.5l-8.4-17.5c1.3-1,2.7-2,4.1-2.9c1.2-0.8,2.4-1.5,3.8-2c1.4-0.6,2.8-0.9,4.2-0.9c1.8,0,3.2,0.6,4.3,1.8
		c1.4,1.6,2.7,2.9,3.7,4.1c1,1.2,2.1,2.3,3.1,3.5c1,1.2,2.1,2.4,3.3,3.8c1.2,1.4,2.5,3,4.1,5c0.4,0.4,0.7,0.8,0.9,1.3
		c0.2,0.5,0.4,0.9,0.7,1.3l39.6-4.5l11.7-22l11.5,6.6c1.6,0.9,2.8,2,3.7,3.3c0.8,1,1.3,2.3,1.6,3.8c0.3,1.5-0.2,3.3-1.4,5.4
		l23.8-2.7l0.2,11.1c-0.1,2-0.7,3.8-1.6,5.5c-0.9,1.4-2.2,2.8-3.9,4.1c-1.7,1.3-4.1,2.2-7.2,2.7c-1.3,0.1-3.8,0.4-7.6,0.7
		c-3.8,0.3-8.3,0.7-13.6,1c-5.3,0.3-11.1,0.7-17.6,1.2c-6.5,0.5-13.2,0.9-20.1,1.3c-1.2,2-2.5,4.1-4.1,6.4l65.3-7.2l0.2,10.7
		c-0.1,2-0.7,3.8-1.6,5.5c-0.9,1.4-2.2,2.8-3.9,4.1c-1.7,1.3-4.1,2.2-7.2,2.7c-1.7,0.3-4.7,0.5-9.2,0.8c-4.4,0.3-9.6,0.5-15.5,0.8
		c-5.9,0.3-12.4,0.5-19.3,0.8c-7,0.3-13.9,0.6-20.8,1c-1.6,2.9-3.4,5.9-5.5,9.2l110.6-9.6l-0.4,11.1c-0.3,2.2-0.9,4.2-2,5.8
		c-0.9,1.6-2.3,3-4.1,4.4c-1.8,1.4-4.4,2.2-7.8,2.4c-1,0.1-2.7,0.3-5.1,0.4c-2.3,0.1-5.3,0.3-8.8,0.6L768,434.1z M642.2,425.9
		c3.2,0.7,6.1,1.4,8.6,2.3c2.2,0.9,4.1,2,5.8,3.2c1.6,1.2,2.3,2.8,2,4.6c-2.1,13-3.8,24.3-5.2,33.8c-1.4,9.6-2.6,17.1-3.6,22.5
		c-0.8,3.5-2.2,6.2-4.3,8.2c-2.1,1.9-4.9,2.9-8.6,2.9l-15.4-2.1L642.2,425.9z M713,432.5c1,12.4,2.2,23.5,3.5,33.4
		c1.3,9.9,2.1,17.6,2.3,23.1c0.1,3.2-0.3,5.8-1.3,7.5c-1,1.8-2.1,3.2-3.4,4.2c-1.4,1-3.1,1.8-5.1,2.1l-15.4,0.6l1-77h2.5
		c1.2,0,2.6,0.1,4.3,0.2c1.7,0.1,3.3,0.4,4.9,0.8c1.6,0.4,3,1,4.2,1.8C711.8,430,712.6,431.1,713,432.5z"/>
	<path class="st0" d="M955.6,480.7l-3.3,12.3c-0.5,1.6-1.3,3-2.3,4.3c-0.8,1-1.9,2-3.4,2.9c-1.5,0.9-3.3,1.4-5.6,1.4
		c-1.2,0-2.7-0.2-4.5-0.6c-3.1-0.8-7.9-2-14.4-3.8c-6.5-1.8-13.9-3.7-22.1-5.9c-8.3-2.2-17-4.6-26.2-7.1c-9.2-2.5-18.1-5-26.7-7.3
		c-1.4,3.8-2.8,7.2-4.1,10.4c-1.3,3.2-2.5,6.1-3.7,8.7c-1,2.2-2.4,3.7-4,4.5c-1.6,0.8-3.3,1.2-5,1.2c-0.9,0-1.8-0.1-2.5-0.2
		c-0.8-0.1-1.5-0.3-2.1-0.6c-0.7-0.3-1.3-0.5-2-0.8l-10.5-4.1l10.7-25.5c-6.6-1.8-12.1-3.4-16.3-4.8c-4.2-1.4-6.7-2.2-7.5-2.6
		c-1.8-0.8-3-2.1-3.4-3.9c-0.5-1.8-0.6-3.7-0.5-5.7c0.3-2.1,0.8-4.4,1.6-7l33.3,7.2l6.6-15.6h-3.3c-0.7,1.4-1.6,2.6-2.7,3.4
		c-1.2,0.8-2.3,1.5-3.5,2c-1.4,0.5-2.9,0.9-4.3,1.2l-11.3,0.6l-8-78.6c0.5-0.1,1.1-0.3,1.8-0.4c0.6,0,1.3,0,2-0.1
		c0.7-0.1,1.5-0.1,2.4-0.1c1.8,0,3.7,0.2,5.7,0.6c2,0.4,3.6,1.2,5.1,2.5l46.6-3.3l4.7-11.3c-7.5,0.3-15,0.6-22.5,0.9
		c-7.5,0.3-14.5,0.6-21.1,0.9c-6.6,0.3-12.4,0.5-17.5,0.8c-5.1,0.3-9,0.5-11.9,0.8h-0.4c-2.1,0-3.7-0.7-5-2c-1.2-1.4-2.2-3-2.8-4.8
		c-0.7-1.8-1.1-3.6-1.4-5.3c-0.3-1.7-0.5-2.8-0.6-3.3L950.5,330l0.2,10.9c0,0.8-0.1,1.6-0.2,2.3c-0.1,0.7-0.4,1.4-0.7,2.2
		c-0.3,0.8-0.8,1.7-1.5,2.4c-2.2,2.5-5.3,3.8-9.2,3.9c-1.6,0.1-3.9,0.3-7.1,0.4c-3.2,0.1-6.9,0.3-11.2,0.5
		c-4.3,0.2-9.1,0.4-14.3,0.6c-5.3,0.2-10.8,0.4-16.5,0.7l-3.9,10.7l42.3-2.9h0.8c0.8,0,1.9,0.1,3.3,0.3c1.4,0.2,2.8,0.7,4.2,1.5
		c1.4,0.8,2.5,1.9,3.5,3.5c1,1.6,1.4,3.7,1.3,6.4c-1,15.3-2.1,27.8-3.2,37.3c-1.1,9.6-1.8,16.2-2,20c-0.3,2.1-0.8,3.7-1.7,5
		c-0.8,1.2-1.8,2.2-2.8,2.9c-1,0.7-2.1,1.2-3.2,1.4c-1.1,0.2-2,0.3-2.8,0.3c-0.5,0-0.9-0.1-1.2-0.2c-0.1,0-0.3,0-0.4,0h-10.7
		l0.6-3.5l-53,1l-7.2,20.9L955.6,480.7z M860,384.7c-6.2,0.4-12.2,0.8-17.9,1.3c-5.7,0.5-10.9,0.9-15.4,1.3l1.6,7.6l28.3-1.8
		L860,384.7z M844.4,421.6l4.3-9.9l-17,0.6c0.5,2.6,1.1,5.8,1.8,9.8L844.4,421.6z M916.8,418.5c0.6-3.5,1.2-6.6,1.8-9.4
		c-2,0-4.6,0.1-7.9,0.2c-3.3,0.1-7.1,0.3-11.4,0.5s-8.9,0.4-13.9,0.5c-5,0.1-10.1,0.3-15.3,0.6c-0.5,1.7-1,3.3-1.6,4.9
		c-0.5,1.6-1.1,3.2-1.8,4.9L916.8,418.5z M916,380.8c-3.3,0.3-6.8,0.5-10.7,0.6c-3.4,0.3-7.3,0.6-11.7,0.9c-4.4,0.3-9.1,0.7-14,1.1
		l-2.9,8.4l45-2.9c0.1-0.4,0.2-0.8,0.2-1.3c0-0.5,0.1-0.9,0.2-1.3c0.4-2.5-0.1-4-1.4-4.6c-1.3-0.6-2.5-0.9-3.5-0.9H916z"/>
	<path class="st0" d="M1049.6,344.6c-3.8,5.6-7.5,11.4-11.1,17.4c-3.6,6-7.2,11.8-10.5,17.4c0,4.7,0,10.4,0.1,17.2
		c0.1,6.8,0.1,13.9,0.2,21.4c0.1,7.5,0.1,15,0.1,22.7c0,7.7,0,14.8,0,21.3c0,6.5,0,12.2,0,17c0,4.8-0.1,8.1-0.2,9.8
		c-0.1,3.1-0.7,5.6-1.8,7.3c-1,1.8-2.3,3-3.7,3.8c-1.4,0.9-3.1,1.5-5.1,1.8l-14.8,1l6-92.2c-1,1.8-2.5,3.3-4.5,4.5s-4,1.8-6,1.8
		c-1.3,0-2.5-0.2-3.5-0.5c-1-0.3-2-0.7-2.9-1.1c-0.9-0.5-1.8-1-2.5-1.6l-8.6-5.1l59.5-79.4c2.6,1.7,4.7,3.4,6.4,5.1
		c1.6,1.6,2.8,3.3,3.6,5.2C1051.1,340.9,1050.9,342.8,1049.6,344.6z M1139.3,393.3c-1.6,0.1-4.2,0.3-7.9,0.5s-8.1,0.4-13.1,0.6
		c-5,0.2-10.5,0.4-16.5,0.5c-6,0.1-12.1,0.3-18.3,0.6c-2.1,10.7-4.3,21.5-6.6,32.6c-2.3,11.1-4.5,21.2-6.4,30.5
		c-2,9.3-3.6,17.2-5.1,23.6c-1.4,6.4-2.4,10.4-2.9,11.8c-0.5,1.8-1.3,3.2-2.2,4.3c-1,1-2,1.9-3,2.4c-1,0.6-2.1,1-3.2,1.2
		c-1.1,0.2-2.1,0.3-3,0.3c-1.2,0-2-0.1-2.3-0.2c-0.4,0-0.7-0.1-1-0.2l-12.5-1.2l27.3-104.3l-16.6,0.6c-1.8,0-3.2-0.7-4.1-2.1
		c-0.9-1.4-1.6-3.1-2.1-4.9c-0.5-2.1-0.8-4.4-1-7l28.1-3.1l13.1-49.9c2.9,0.4,5.4,1,7.6,1.8c1.8,0.7,3.4,1.6,4.9,2.9
		c1.4,1.3,2,3,1.8,5.1c-0.7,3.9-1.6,9.2-2.8,15.8c-1.2,6.6-2.6,14-4.2,22.2l64.5-7v11.7c-0.3,1.8-0.8,3.5-1.8,5.1
		c-0.8,1.3-2,2.5-3.6,3.7C1144.5,392.2,1142.2,392.9,1139.3,393.3z M1157,478.7c1,3.8,1,7.2-0.2,10.3c-0.9,2.6-3.1,5.1-6.4,7.4
		c-3.4,2.3-8.9,3.7-16.6,4.1c-2.9,0.1-5.6,0.2-8.2,0.2c-2.6,0-5,0-7.2,0c-4.6,0-8.4,0-11.6-0.1c-3.2-0.1-5.8-0.1-7.9-0.1
		c-3.6,0-6.4-0.8-8.2-2.4c-1.8-1.6-3.1-3.3-3.9-5.2c-0.9-2.3-1.3-4.9-1.2-7.8l7.2-80.7h11.7c3.1,0,5.4,0.6,6.8,1.9
		c1.4,1.2,2.4,2.6,2.9,4c0.5,1.7,0.6,3.6,0.4,5.9c-2,9.4-3.7,18-5.3,25.9c-0.7,3.4-1.3,6.8-2,10.1c-0.7,3.4-1.2,6.5-1.8,9.5
		c-0.5,2.9-0.9,5.5-1.3,7.7c-0.3,2.2-0.5,3.8-0.5,4.9c0,3.5,0.8,5.8,2.3,6.8c1.6,1,3.6,1.6,6.2,1.6c0.6,0,1.3,0,2-0.1
		c0.6-0.1,1.3-0.1,2-0.1c5.6-0.3,10.6-1.1,15-2.6c4.4-1.5,8.1-3.1,11.1-4.8c3.6-1.9,6.9-4.1,9.8-6.4L1157,478.7z M1134.8,360.6
		c-3.4,3.4-5.8,5.6-7.2,6.6c-0.8,0.7-1.4,1.1-1.8,1.4l-22-28.9c1.2-1.2,2.5-2.2,3.9-3.1c1.2-0.8,2.5-1.5,4-2.1c1.5-0.6,3-1,4.6-1
		c1.8,0,3.5,0.6,5.1,1.8l13.8,11.1c1.4,1.2,2.4,2.5,2.9,3.9c0.5,1.3,0.6,2.8,0.4,4.5C1138.2,356.4,1137,358.4,1134.8,360.6z"/>
	<path class="st0" d="M1352.4,409.3l-6.8,10.1c-0.7,1.2-1.4,2.1-2.3,2.9c-0.8,0.8-1.8,1.5-2.9,2.1c-1.2,0.7-2.5,1-4.1,1
		c-0.8,0-1.6-0.1-2.5-0.3c-0.9-0.2-1.9-0.6-2.9-1.3c-2.1-1.2-4.7-2.7-7.8-4.5c-3.1-1.8-6.6-4-10.5-6.4c1,1.4,1.6,3.2,1.6,5.3
		c0,2.1-0.7,4.6-2.1,7.4c-2.1,3.9-3.8,7.1-5.3,9.5c-1.4,2.4-2.4,4.3-3,5.7c-0.6,1.4-0.7,2.3-0.2,2.8c0.5,0.5,1.5,0.8,3,0.8h0.6
		c1.8,0,3.8-0.1,5.9-0.2c2.1-0.1,4.1-0.3,5.9-0.4c1.9-0.1,4.1-0.3,6.7-0.6h1.2c0.9,0,2.1,0.1,3.5,0.4c1.4,0.3,2.8,0.8,4,1.8
		c1.2,0.9,2.1,2.3,2.7,4.1c0.6,1.8,0.4,4.3-0.5,7.4l-8.2,39c-0.5,1.7-1.2,3.2-2.1,4.5c-0.8,1-1.9,2-3.3,2.9
		c-1.4,0.9-3.3,1.4-5.7,1.4c-1.4,0-2.9-0.2-4.5-0.6c-0.8-0.1-2.4-0.5-5-1c-2.5-0.5-5.4-1.1-8.7-1.8c-3.3-0.7-6.7-1.3-10.3-2
		c-3.6-0.7-7.1-1.4-10.2-2c-3.2-0.7-5.9-1.2-8.2-1.8c-2.3-0.5-3.7-0.8-4.2-1c-1.6-0.7-2.7-1.4-3.3-2.3c-0.7-0.9-1-1.9-1.2-2.9
		c-0.3-1.2-0.3-2.4,0-3.7l3.7-9.4l37.6,8c0.1,0.1,0.3,0.2,0.6,0.2c0.3,0.1,0.8,0.2,1.6,0.2c0.9,0,1.9-0.2,2.9-0.7
		c1-0.5,1.9-1.5,2.5-3c0.4-1,0.9-2.4,1.5-4c0.6-1.6,1.1-3.3,1.7-5.1c0.5-1.8,1-3.4,1.5-5.1c0.5-1.6,0.8-3,1.1-4
		c0.4-1,0.4-1.8,0.1-2.3c-0.3-0.5-0.8-0.9-1.3-1.2c-0.7-0.4-1.4-0.6-2.3-0.6c-3.5,0.4-6.8,0.8-9.9,1.2c-2.7,0.4-5.5,0.7-8.2,1
		c-2.7,0.3-4.8,0.5-6.2,0.8c-0.7,0-1.2,0-1.7,0.1c-0.5,0.1-1,0.1-1.7,0.1c-1.7,0-3.3-0.2-4.8-0.5c-1.5-0.3-2.6-1-3.4-2.1
		c-0.8-1.1-1-2.6-0.8-4.5c0.3-1.9,1.3-4.4,3.1-7.5l9-15c0.6-1.2,1.1-2.2,1.4-3.1c0.1-0.8,0-1.5-0.4-2.1c-0.4-0.6-1.4-1-2.9-1
		c-0.3,0-0.6,0-0.9,0.1c-0.3,0.1-0.6,0.1-0.9,0.1c-1.7,0.1-4.1,0.4-7.2,0.8s-6.6,0.8-10.5,1.4c-3.9,0.5-8.1,1-12.6,1.6
		c-4.5,0.5-8.9,1-13.4,1.6c-0.1,0.1-0.2,0.3-0.2,0.4c-2.6,6.1-5.2,12.5-7.8,19.2c-2.6,6.7-5.1,13-7.4,19c-2.3,6-4.5,11.3-6.3,16.1
		c-1.9,4.7-3.4,8.2-4.6,10.4c-1.6,3.1-3.5,5.2-5.8,6.1c-2.3,1-4.3,1.5-6.1,1.5c-0.7,0-1.2,0-1.7-0.1c-0.5-0.1-0.9-0.1-1.3-0.1
		c-0.4-0.1-0.8-0.3-1.2-0.4l-12.9-4.5l34.3-65.9h-0.8c-2.5,0-4.4-0.4-5.9-1.1c-1.4-0.7-2.5-1.5-3.1-2.4c-0.8-1-1.3-2.2-1.6-3.5
		l-0.8-5.1c-0.7,1-1.3,2.1-2,3.1c-0.7,1-1.4,2.1-2.1,3.3c-1,1.8-2.2,3.1-3.5,3.7c-1.3,0.7-2.6,1-3.9,1c-1,0-2-0.2-2.9-0.5
		c-0.9-0.3-1.8-0.7-2.5-1.1s-1.6-0.8-2.3-1.4l-9-5.7l27.5-39.2l-19.5,1h-0.4c-2,0-3.5-0.7-4.8-2c-1.2-1.4-2.2-2.9-2.9-4.7
		c-0.7-1.8-1.2-3.5-1.5-5.3c-0.3-1.8-0.4-2.9-0.4-3.4l74.9-5.3l0.2-12.1c-5.6,0.1-11,0.3-16.3,0.5c-5.3,0.2-10.2,0.4-14.8,0.6
		c-4.6,0.2-8.8,0.4-12.6,0.6c-3.8,0.2-6.8,0.4-9.2,0.5h-0.4c-2,0-3.5-0.7-4.8-2c-1.2-1.4-2.2-2.9-2.9-4.7c-0.7-1.8-1.2-3.5-1.4-5.3
		c-0.2-1.8-0.3-2.9-0.3-3.4l145.5-10.9l0.4,10.5c0,0.8-0.1,1.6-0.2,2.3c-0.1,0.7-0.4,1.4-0.7,2.2c-0.3,0.8-0.8,1.7-1.5,2.4
		c-1,1.3-2.3,2.2-3.9,2.8c-1.6,0.6-3.3,0.9-5.3,1.1c-1.8,0.1-4.5,0.3-8.1,0.5c-3.6,0.2-7.8,0.4-12.6,0.6c-4.8,0.2-10,0.4-15.7,0.5
		c-5.7,0.1-11.5,0.3-17.5,0.6c0.1,2.1,0.3,4,0.4,5.8c0.1,1.8,0.3,3.6,0.4,5.6l77.6-5.7l0.2,10.5c0,0.8-0.1,1.6-0.2,2.3
		c-0.3,1.8-1,3.4-2.1,4.9c-2,2.2-5,3.4-9.2,3.7c-2.7,0.3-7.9,0.6-15.4,0.9c-7.5,0.3-16.4,0.7-26.5,1.1L1352.4,409.3z M1211.6,414.2
		c3.8-0.3,9.3-0.6,16.6-1.1c7.3-0.5,14.9-0.9,23-1.5l0.6-29.1c-4,0.3-8,0.4-11.8,0.5c-3.8,0.1-7.6,0.2-11.2,0.5
		c-4.3,7.2-7.7,13-10.1,17.6C1216.1,405.8,1213.8,410.2,1211.6,414.2z M1299.7,408.5c1,0,2.1,0,3.2,0c1.1,0,2.2,0.1,3.2,0.4
		c-5.1-3.2-10.4-6.7-15.9-10.3c-5.5-3.6-11.1-7.3-16.9-11.1l1.4,21.6v1c5.6-0.4,10.6-0.7,15-1
		C1294.2,408.9,1297.5,408.7,1299.7,408.5z"/>
	<path class="st0" d="M1453.2,362.1c-0.1,17.7-0.2,33.9-0.2,48.7c0,14.8,0,27.7,0.1,38.7c0.1,11.1,0.1,20,0.2,26.8
		c0.1,6.8,0,11.1-0.1,13c-0.3,3.8-1.4,6.3-3.5,7.7c-2.1,1.4-4.8,2-8.2,2h-13.3c0.1-1.2,0.2-2.3,0.2-3.5s0.1-2.3,0.2-3.5l-28.3,1.4
		c-0.9,1.4-2,2.5-3.2,3.2c-1.2,0.7-2.4,1.3-3.6,1.7c-1.4,0.4-2.9,0.6-4.3,0.8H1377l0.6-119.7c-0.7-0.3-1.2-0.5-1.8-0.7
		c-0.5-0.2-0.9-0.4-1.2-0.5l-8-6.6l42.3-40.8l1,0.4c1.8,1.6,3.2,2.9,4.3,4.1c1,1.2,2,2.5,2.9,3.9c0.9,1.4,1.4,2.9,1.6,4.3
		c0.3,1.6-0.1,2.9-1.2,4.1c-1,1.3-2,2.5-2.9,3.7c-0.9,1.2-1.8,2.3-2.7,3.3l28.7-3.7c3.6,0,6.7,0.9,9.1,2.7
		C1452,355.4,1453.2,358.2,1453.2,362.1z M1429.6,473.1c0.6-14,1.3-29,2-44.9c0.7-15.9,1.4-33.5,2-52.7c0.1-1.2,0-2.1-0.3-2.8
		c-0.3-0.7-0.8-1.3-1.4-1.7c-0.6-0.4-1.2-0.6-1.8-0.8c-0.6-0.1-1.1-0.2-1.7-0.2h-1.2c-3.4,0.7-6.8,1.3-10.3,2c-3,0.7-6.3,1.3-10,1.9
		s-7.3,1.2-10.8,1.9c0.3,4.8,0.6,10.8,0.9,17.8c0.3,7.1,0.7,14.7,1.1,22.9l27.7-4.1l-0.2,10.5c-0.1,2.2-0.6,4.2-1.4,5.8
		c-0.8,1.6-2,3-3.6,4.2c-1.6,1.2-3.9,2-6.9,2.2l-14.6,1l2.1,41L1429.6,473.1z M1534.9,346.3c3.6,0,6.7,0.9,9.3,2.7
		c2.5,1.8,3.8,4.7,3.8,8.8c-0.4,12.4-0.8,24.1-1.2,35.1c-0.4,11.1-0.8,22-1.2,32.8c-0.4,10.8-0.8,21.7-1.3,32.8
		c-0.5,11.1-1,22.7-1.7,35.1c0,1.7-0.4,3.1-1.2,4.1c-0.8,1-1.7,1.8-2.8,2.3c-1.1,0.5-2.3,0.9-3.5,1.1c-1.2,0.2-2.4,0.3-3.4,0.3h-2.1
		c-0.4-0.1-0.7-0.2-1-0.2c-7.2-1.4-13.7-2.8-19.7-4.1c-5.2-1-10.2-2.1-15-3.2c-4.8-1.1-8.1-2-9.9-2.6c-1.8-0.5-3.1-1.3-3.7-2.3
		c-0.7-1-1-2.1-1.2-3.1c-0.1-1.2,0-2.5,0.4-3.9l3.5-8.6l25.5,5.9c0.4,0.1,0.8,0.3,1.4,0.4c0.4,0,0.8,0,1.3,0.1
		c0.5,0.1,1,0.1,1.7,0.1c1.8,0,3.6-0.4,5.4-1.3c1.8-0.8,2.8-2.6,3-5.4c1-9.6,1.9-18.3,2.5-26c0.6-7.7,1.3-15.4,1.9-23.1
		c0.6-7.7,1.2-15.8,2-24.3c0.7-8.5,1.5-18.4,2.4-29.5c0.3-2.2-0.3-3.6-1.7-4.3c-1.4-0.6-2.6-1-3.6-1h-1.2c-0.1,0.1-0.3,0.2-0.4,0.2
		l-35.3,5.1c-0.7,2-1.3,3.7-1.9,5.4c-0.6,1.6-1.3,3.3-2.2,5.2c-1.6,3.5-3.6,5.8-6,6.7c-2.5,1-4.6,1.5-6.4,1.5c-1,0-1.8-0.1-2.1-0.2
		c-0.3,0-0.5,0-0.8,0l-10.9-3.7l29.6-56.7c2.6,0.9,4.7,2.1,6.4,3.5c1.6,1.3,2.8,2.9,3.8,4.8c1,1.9,1,4.1,0.1,6.7
		c-0.5,1.3-1,2.6-1.4,3.8c-0.4,1.2-0.8,2.4-1.2,3.4L1534.9,346.3z M1491.6,448.3l-26.3-43.3c0.1-0.1,0.6-0.5,1.5-1.1
		c0.8-0.6,1.9-1.2,3.1-1.9c1.2-0.6,2.6-1.2,4.2-1.8c1.6-0.5,3.1-0.8,4.5-0.8c1.7,0,3,0.4,3.9,1.2c3,3.6,5.5,6.8,7.6,9.6
		c2.1,2.7,4.4,5.7,6.8,9c2.5,3.3,4.7,6.4,6.6,9.4c1.6,1.7,2.4,3.3,2.4,4.7c0.1,1.4-0.2,2.7-0.7,3.9c-0.7,1.3-1.6,2.5-2.9,3.5
		L1491.6,448.3z"/>
	<path class="st0" d="M1740.8,488.7c-1.3,0.8-3,1.8-5,3.1c-2,1.3-4.1,2.5-6.3,3.7c-2.2,1.2-4.4,2.2-6.5,3c-2.1,0.8-4,1.3-5.6,1.3
		c-1.8,0-3.4-0.3-4.7-1c-1.3-0.7-2.5-1.3-3.5-2c-1.2-0.9-2.1-2-2.9-3.1c-8.6-12.6-16.5-24.4-23.8-35.3c-3.1-4.7-6.3-9.4-9.6-14.1
		c-3.3-4.7-6.3-9.2-9.3-13.5c-2.9-4.2-5.5-8-7.8-11.4c-2.3-3.4-4.1-6-5.6-8c-6.2,9.5-12.4,18.9-18.6,28.4c-6.2,9.4-11.8,18-17,25.7
		c-5.1,7.7-9.5,14.2-13.1,19.4c-3.6,5.2-5.9,8.4-6.9,9.6c-1.4,1.7-2.9,2.8-4.5,3.4c-1.6,0.6-3.1,0.9-4.5,0.9c-2.3,0-4.4-0.5-6.2-1.4
		c-0.9-0.4-1.8-0.8-2.5-1.4l-11.7-6.4l114.5-154.4c2.6,1.6,4.8,3.2,6.6,4.9c1.6,1.4,2.8,3.1,3.6,5c0.8,1.9,0.7,3.7-0.5,5.6
		l-28.9,44.8L1740.8,488.7z"/>
	<path class="st0" d="M1781,502.9c-1.2-1.2-2.2-2.7-3-4.5c-0.8-1.8-1.3-3.7-1.4-5.7c-0.1-1.9,0.4-3.9,1.3-5.8
		c0.9-1.9,2.5-3.5,4.9-4.8c2.5-1.3,4.9-2,7.4-2c3.2,0,6,1.1,8.4,3.2c2.3,2.1,3.6,4.9,3.7,8.3c0,1.8-0.4,3.5-1.2,5.2
		c-0.8,1.6-1.8,3.1-3.1,4.5c-1.3,1.4-2.8,2.4-4.5,3.2c-1.7,0.8-3.4,1.2-5.3,1.2C1785.6,505.8,1783.2,504.9,1781,502.9z
		 M1776.7,335.6h12.1c2.5,0.1,4.7,0.7,6.6,1.8c1.7,1,3.2,2.5,4.6,4.5c1.4,2,2,4.8,1.9,8.6c0.1,2.7,0.2,6.4,0.2,10.9
		c0,4.6,0,9.7-0.1,15.4c-0.1,5.7-0.1,11.8-0.2,18.2c-0.1,6.4-0.2,12.8-0.3,19c-0.3,14.8-0.6,30.7-1,47.6c-0.3,2-1.2,3.7-2.7,5.3
		c-1.3,1.3-3.3,2.5-6.1,3.6c-2.8,1.1-6.8,1.7-12,1.7L1776.7,335.6z"/>
</g>
<g>
	<path class="st0" d="M14.7,27.7l11.1,1.1v17.8L5.5,48L3.9,33.2c-0.2-2.3,0.1-4.5,0.8-6.8c0.7-2.2,1.9-4.2,3.4-5.8L19.2,8.2l8,5.6
		L14.7,27.7z M40.9,27.7H52v16.8L31.7,48l-0.5-15.3c-0.2-4,0.9-7.5,3.4-10.8l9.7-12.3l7.6,6.9L40.9,27.7z"/>
</g>
<g>
	<path class="st0" d="M1827.5,287.6l21.4-2.2v14.4c0,3-0.5,5.9-1.6,8.7c-1,2.8-2.5,5.4-4.5,7.6l-8.6,9.7l-8.6-5.9l12.9-13.4
		l-9.8-0.9L1827.5,287.6z M1853.5,286.4l21.1-0.9l0.5,13.9c0.1,3.4-0.4,6.7-1.6,9.8c-1.2,3.1-2.9,5.9-5.2,8.3l-8.1,8.4l-9.5-6.6
		l14-12.8l-11.1-1.9V286.4z"/>
</g>
<g>
</g>
<g>
</g>
<g>
</g>
<g>
</g>
<g>
</g>
<g>
</g>
<g>
</g>
<g>
</g>
<g>
</g>
<g>
</g>
<g>
</g>
<g>
</g>
<g>
</g>
<g>
</g>
<g>
</g>
</svg>
