<?xml version="1.0" encoding="utf-8"?>
<!-- Generator: Adobe Illustrator 22.1.0, SVG Export Plug-In . SVG Version: 6.00 Build 0)  -->
<svg version="1.1" id="图层_1" xmlns="http://www.w3.org/2000/svg" xmlns:xlink="http://www.w3.org/1999/xlink" x="0px" y="0px"
	 viewBox="0 0 1033 744" style="enable-background:new 0 0 1033 744;" xml:space="preserve">
<style type="text/css">
	.st0{fill:#4D4D4D;}
</style>
<g>
	<path class="st0" d="M31.7,136.3c3.1,0.8,5.8,1.8,8.2,3.1c2,1.1,3.8,2.3,5.3,3.7c1.5,1.4,2,3,1.6,4.9c-0.1,1.5-0.6,3.6-1.3,6.3
		c-0.7,2.7-1.6,5.8-2.7,9.3c-1,3.5-2.1,7.2-3.3,11.1c-1.2,3.9-2.3,7.9-3.4,11.8c-0.7,2.9-2,4.7-4.1,5.6c-2,0.9-4,1.3-5.9,1.3
		c-1.4,0-2.7-0.1-4.1-0.4c-0.7-0.1-1.3-0.3-1.8-0.4L10.1,190L31.7,136.3z M64.1,120.4c0,2.2-0.5,3.9-1.6,5.2c-1.1,1.3-2.4,2.3-3.9,3
		c-1.5,0.7-3,1.1-4.6,1.2c-1.6,0.1-2.8,0.2-3.6,0.2h-1l-9.6-0.4l2.7-47.5c-1.2,1.8-2.7,3.6-4.5,5.6c-1.8,2-3.8,3-6.1,3
		c-1.2,0-2.4-0.2-3.5-0.7c-1.1-0.5-2-1.1-2.9-1.7c-1.1-0.7-2-1.4-2.9-2.2l-8.4-8l56.1-61.4c2.3,2,4.2,4.1,5.7,6.1
		c1.4,1.9,2.3,3.8,3,5.8c0.6,2,0.3,3.8-0.9,5.4c-0.8,1.2-2.7,3.8-5.5,7.8c-2.9,3.9-6.1,8.4-9.8,13.5c0.3,0.8,0.4,1.5,0.4,2
		c0.1,5.2,0.2,10.5,0.3,16.1c0.1,5.6,0.1,11.1,0.2,16.6c0.1,5.5,0.1,10.9,0.1,16.1C63.9,111.3,64,116.1,64.1,120.4z M161.6,184.9
		c0.7,3,0.6,5.6-0.2,8c-0.7,2-2.2,3.9-4.5,5.5c-2.3,1.6-6.1,2.4-11.4,2.4H68.6c-4.4,0-7.7-0.5-9.9-1.5c-2.2-1-3.8-2.1-4.8-3.4
		c-1.1-1.5-1.6-3.2-1.4-5.1l2-57.1h12.2c3,0,5.2,0.5,6.6,1.4c1.4,1,2.4,2,3,3.1c0.7,1.4,0.9,2.9,0.8,4.5c-0.5,5.7-1,10.9-1.4,15.7
		c-0.3,4.1-0.5,8.1-0.8,11.9c-0.3,3.9-0.4,6.4-0.4,7.6c0.1,1.5,0.6,2.6,1.5,3.4c0.9,0.7,1.9,1.3,3,1.5c1.2,0.4,2.7,0.6,4.3,0.6h10
		c3,0,6.3,0,9.9,0c3.6,0,7.1,0,10.6-0.1c3.5-0.1,6.7-0.1,9.7-0.2c3-0.1,5.3-0.2,6.9-0.3c5.7-0.5,10.3-1.3,13.9-2.1
		c3.5-0.9,6.4-1.7,8.6-2.5c2.4-1,4.4-1.9,5.7-2.9L161.6,184.9z M68.6,68.4l31.6-52c2.7,1.5,5,3.1,6.9,4.9c1.6,1.5,3,3.1,4.1,4.8
		c1.1,1.7,1.2,3.4,0.4,5.2c-0.3,1-0.7,2.1-1.2,3.4c-0.5,1.3-1.2,2.8-2,4.6l60.2-5.1h2c0.9,0,2.1,0.1,3.6,0.3c1.4,0.2,2.8,0.6,4,1.3
		c1.2,0.7,2.2,1.7,3,3.1c0.7,1.4,1,3.2,0.7,5.5c-0.3,4.4-0.5,7.7-0.7,10c-0.2,2.3-0.4,4.4-0.7,6.3c-0.5,3.7-1.8,6-3.9,7
		c-2,1-3.9,1.5-5.7,1.5c-0.4,0-0.8,0-1.2-0.1c-0.4-0.1-0.7-0.1-1-0.1c-0.3,0-0.5-0.1-0.8-0.2l-12.6-1l3.3-11.2
		c0.4-0.9,0.5-1.8,0.2-2.7c-0.1-0.7-0.6-1.3-1.4-1.8c-0.8-0.5-2.2-0.8-4.1-0.8h-1.2l-10.6,0.8c0.7,6.5,1.3,13.6,1.7,21.3
		c0.5,7.7,0.9,14.9,1.3,21.5c0.5,7.8,1,15.5,1.4,23.3c-0.1,2-0.6,3.8-1.4,5.3c-0.7,1.4-1.7,2.6-3.1,3.7c-1.4,1.1-3.3,1.6-5.9,1.6
		c-5.2,0-10.3-0.3-15.3-0.9c-5-0.6-10.1-1.3-15.1-1.9c-1.6-0.3-2.8-0.8-3.4-1.6c-0.6-0.8-1-1.8-1.1-2.9c-0.3-1.1-0.2-2.3,0.2-3.7
		l2.7-10l9,2.7c0.3,0,0.5,0,0.6,0c0.4,0.1,1,0.2,1.8,0.2c1.4,0,2.8-0.4,4.4-1.2c1.6-0.8,2.4-2.7,2.5-5.7c0-1.6,0-4.2-0.1-7.8
		c-0.1-3.5-0.1-7.6-0.2-12.2c-0.1-4.6-0.1-9.5-0.2-14.7c-0.1-5.2-0.1-10.1-0.1-14.9c-3.1,0.3-6.4,0.5-9.8,0.8
		c-3.4,0.3-6.9,0.5-10.6,0.8l-7.3,14.9c-1.1,1.9-2.3,3.2-3.6,4c-1.3,0.7-2.6,1.1-4,1.1c-1.9,0-3.8-0.5-5.7-1.4
		c-0.8-0.3-1.6-0.7-2.4-1.2L68.6,68.4z M110.2,83.5c-2.3,6.8-4.9,12.9-7.6,18.2c-2.8,5.3-5.1,10.2-7,14.7c-1.4,3.4-2.9,5.6-4.7,6.7
		c-1.8,1.1-3.4,1.6-4.9,1.6c-0.7,0-1.3-0.1-1.8-0.2c-0.5-0.1-1-0.3-1.4-0.4c-0.5-0.1-1-0.3-1.4-0.6l-11-5.5l28.2-47.1
		c3,1.4,5.3,2.6,6.8,3.8c1.6,1.2,2.9,2.5,4.1,4.1C110.5,80.3,110.8,81.9,110.2,83.5z M124.9,170l-34.3-32.4c1.5-1.6,3-3.1,4.5-4.5
		c1.4-1.1,2.9-2.1,4.5-3.1c1.6-1,3.3-1.4,4.9-1.4c0.9,0,2.8,0.7,5.4,2.2c2.7,1.5,5.5,3.2,8.5,5.1c3,1.9,5.8,3.8,8.5,5.6
		s4.5,3.1,5.4,3.8c2.4,1.9,3.8,3.8,4.2,5.8c0.3,2,0.2,3.8-0.5,5.4c-0.7,1.9-1.8,3.8-3.5,5.7L124.9,170z M146.5,77.6
		c1.5-1.1,3-2.1,4.5-3.1c1.4-0.7,2.8-1.3,4.3-1.9c1.5-0.6,2.9-0.9,4.3-0.9c1.5,0,2.7,0.5,3.7,1.4c4.8,5.3,8.7,10.2,11.7,14.7
		c3.1,4.5,6.2,8.5,9.3,12c2.2,2.7,3.4,5.1,3.6,7c0.2,2,0,3.6-0.7,5c-0.7,1.6-1.8,3-3.5,4.1l-10.2,7.1L146.5,77.6z M189,169.8
		c1.8,2.4,2.5,4.7,2.1,6.6c-0.3,2-1.1,3.7-2.1,5.2c-1.2,1.6-2.9,3.1-5.1,4.5l-9.8,5.5L148,143.1c1.5-0.9,3.1-1.8,4.7-2.4
		c1.5-0.7,3.1-1.3,4.8-1.7c1.7-0.5,3.3-0.7,4.8-0.7c2.2,0,3.8,0.5,4.9,1.6c1.1,1.2,2.7,3.3,4.9,6.1c2.2,2.9,4.4,5.9,6.7,9.2
		c2.3,3.3,4.5,6.3,6.4,9.1C187.2,167,188.4,168.8,189,169.8z"/>
	<path class="st0" d="M302,53.7c-0.1,18.5-0.2,35.5-0.2,50.9c0,15.4,0,28.9,0.1,40.5c0.1,11.6,0.1,20.9,0.2,28.1
		c0.1,7.1,0,11.7-0.1,13.6c-0.3,3.9-1.5,6.6-3.7,8.1c-2.2,1.4-5,2.1-8.6,2.1h-13.9c0.1-1.2,0.2-2.4,0.2-3.7s0.1-2.4,0.2-3.7
		l-29.6,1.4c-1,1.5-2.1,2.6-3.4,3.4c-1.3,0.7-2.5,1.3-3.8,1.7c-1.5,0.4-3,0.7-4.5,0.8h-12.9l0.6-125.3c-0.7-0.3-1.3-0.5-1.8-0.7
		c-0.5-0.2-1-0.4-1.2-0.5l-8.4-6.9l44.3-42.6l1,0.4c1.9,1.6,3.4,3.1,4.5,4.3c1.1,1.2,2.1,2.6,3.1,4.1c0.9,1.5,1.5,3,1.6,4.5
		c0.3,1.6-0.1,3.1-1.2,4.3c-1.1,1.4-2.1,2.7-3.1,3.9c-1,1.2-1.9,2.4-2.9,3.5l30-3.9c3.8,0,7,1,9.5,2.9C300.7,46.6,302,49.6,302,53.7
		z M277.3,169.8c0.7-14.7,1.4-30.4,2.1-47c0.7-16.7,1.5-35.1,2.1-55.2c0.1-1.2,0-2.2-0.3-3c-0.3-0.7-0.8-1.3-1.4-1.7
		c-0.6-0.4-1.2-0.7-1.8-0.8c-0.6-0.1-1.2-0.2-1.7-0.2h-1.2c-3.5,0.7-7.1,1.4-10.8,2c-3.1,0.7-6.6,1.3-10.5,1.9s-7.6,1.3-11.3,1.9
		c0.3,5,0.6,11.3,0.9,18.7c0.3,7.4,0.7,15.4,1.1,24l29-4.3l-0.2,11c-0.1,2.3-0.6,4.4-1.4,6.1c-0.8,1.6-2.1,3.1-3.8,4.4
		c-1.7,1.3-4.1,2.1-7.2,2.3l-15.3,1l2.2,42.8L277.3,169.8z M387.5,37.2c3.8,0,7,1,9.7,2.9c2.7,1.9,4,5,4,9.2
		c-0.4,12.9-0.8,25.2-1.2,36.7c-0.4,11.6-0.8,23-1.2,34.3c-0.4,11.3-0.8,22.7-1.3,34.3c-0.5,11.6-1.1,23.8-1.7,36.7
		c0,1.8-0.4,3.2-1.2,4.3c-0.8,1.1-1.8,1.9-3,2.4c-1.2,0.5-2.4,0.9-3.7,1.1c-1.3,0.2-2.5,0.3-3.6,0.3H382c-0.4-0.1-0.7-0.2-1-0.2
		c-7.5-1.5-14.4-2.9-20.6-4.3c-5.4-1.1-10.7-2.2-15.7-3.4c-5-1.2-8.5-2.1-10.4-2.8c-1.9-0.5-3.2-1.4-3.9-2.4
		c-0.7-1.1-1.1-2.2-1.2-3.3c-0.1-1.2,0-2.6,0.4-4.1l3.7-9l26.7,6.1c0.4,0.1,0.9,0.3,1.4,0.4c0.4,0,0.8,0,1.3,0.1
		c0.5,0.1,1.1,0.1,1.7,0.1c1.9,0,3.8-0.4,5.6-1.3c1.8-0.9,2.9-2.8,3.2-5.6c1.1-10.1,2-19.1,2.7-27.2c0.7-8.1,1.3-16.1,1.9-24.2
		c0.6-8,1.3-16.5,2-25.4c0.7-8.9,1.6-19.2,2.6-30.9c0.3-2.3-0.3-3.8-1.7-4.5c-1.4-0.7-2.7-1-3.8-1h-1.2c-0.1,0.1-0.3,0.2-0.4,0.2
		l-36.9,5.3c-0.7,2-1.3,3.9-1.9,5.6c-0.6,1.7-1.4,3.5-2.3,5.4c-1.6,3.7-3.7,6-6.3,7c-2.6,1-4.8,1.5-6.7,1.5c-1.1,0-1.8-0.1-2.2-0.2
		c-0.3,0-0.5,0-0.8,0l-11.4-3.9l31-59.4c2.7,1,5,2.2,6.7,3.7c1.6,1.4,3,3,4,5c1,2,1.1,4.3,0.1,7c-0.5,1.4-1,2.7-1.4,4
		c-0.4,1.3-0.8,2.5-1.2,3.6L387.5,37.2z M342.2,143.9l-27.5-45.3c0.1-0.1,0.6-0.5,1.5-1.1c0.9-0.6,2-1.3,3.3-1.9
		c1.3-0.7,2.8-1.3,4.4-1.8c1.6-0.5,3.2-0.8,4.7-0.8c1.8,0,3.1,0.4,4.1,1.2c3.1,3.8,5.8,7.1,8,10c2.2,2.9,4.6,6,7.1,9.4
		c2.6,3.4,4.9,6.7,6.9,9.8c1.6,1.8,2.5,3.4,2.5,4.9c0.1,1.5-0.2,2.9-0.7,4.1c-0.7,1.4-1.7,2.6-3.1,3.7L342.2,143.9z"/>
	<path class="st0" d="M488,99.2c1.1,3.4,1.7,6.2,1.9,8.5c0.2,2.2,0,4.5-0.7,6.6c-0.7,2.2-2.2,3.8-4.5,4.9c-2.9,1.2-5.6,2.4-8.2,3.7
		c-2.6,1.2-5,2.4-7.3,3.5l5.3,59.6c-0.4,2.7-1,4.9-1.6,6.5c-0.7,1.6-1.8,3.1-3.3,4.5c-1.5,1.4-3.6,2-6.3,2c-0.3,0-0.5,0-0.8-0.1
		c-0.3-0.1-0.5-0.1-0.8-0.1h-0.2c-1,0-2.4,0-4.5-0.1c-2-0.1-4.4-0.2-7-0.5c-2.7-0.3-5.5-0.6-8.6-1c-3.1-0.4-6.1-1-9.1-1.6
		c-2.2-0.5-3.7-1.8-4.7-3.7c-0.7-1.5-0.9-3-0.6-4.4c0.3-1.4,0.5-2.2,0.6-2.3l2.9-8.4l9.8,2.4c0.3,0,0.5,0.1,0.6,0.2h1.8
		c1.4,0,2.8-0.5,4.3-1.5c1.5-1,2.5-3.1,3.1-6.2c0-0.8,0-2.3-0.1-4.6c-0.1-2.2-0.2-5-0.3-8.3c-0.1-3.3-0.3-6.9-0.5-10.8
		c-0.2-3.9-0.4-8-0.7-12.2c-2.2,1-4.1,1.8-5.8,2.5c-1.7,0.7-3.2,1.4-4.6,1.9c-1.1,0.5-2.5,0.8-4.3,0.8c-1.8,0-3.3-0.4-4.6-1.1
		c-1.3-0.7-2.4-1.6-3.3-2.6c-0.9-0.9-1.8-2.2-2.8-3.7l-4.1-11l27.9-9.8c-0.3-4.8-0.5-9.1-0.6-13.2c-0.1-4-0.2-7.2-0.2-9.5
		c0-2,0.2-3.8,0.5-5.3c0.3-1.5,0.7-2.7,1.2-3.7c0.5-0.9,1.2-1.9,2.1-2.9l18-23.9c-1.1,0.3-3.1,0.7-6,1.3c-2.9,0.6-6.2,1.3-9.9,2
		c-3.7,0.7-7.5,1.5-11.5,2.2c-4,0.7-7.8,1.4-11.3,1.9c-0.3,0-0.6,0-0.9,0.1c-0.3,0.1-0.6,0.1-0.9,0.1c-2.9,0-5-0.9-6.3-2.8
		c-1.4-1.8-2-4.1-2-6.8V41.1h0.4c0.1,0,1.7-0.2,4.8-0.6c3.1-0.4,6.8-0.9,11.3-1.4c4.5-0.5,9.4-1.2,14.7-1.9
		c5.3-0.7,10.2-1.4,14.7-1.9c4.5-0.5,9.8-1.2,15.9-2c1.9,0,3.4,0.4,4.4,1.2c1,0.8,1.8,1.7,2.2,2.8c0.5,1,0.9,2.4,1.3,4.2v6.9
		c0,0.8-0.1,1.6-0.4,2.4c-0.3,0.7-0.5,1.5-0.8,2.4c-0.3,1-0.7,2-1.4,3.1c-0.4,0.8-1.4,2.5-3.1,5.2c-1.6,2.7-3.4,5.6-5.3,8.9
		c-1.9,3.3-3.7,6.4-5.5,9.4c-1.8,3-3.1,5.2-4.1,6.7c-0.7,0.8-1.1,1.8-1.3,2.9c-0.2,1.1-0.3,2.1-0.3,3.1c-0.1,1.2-0.1,2.4,0,3.5
		l0.8,10l20.6-7.1V99.2z M515.6,158.8c-1.2,1.5-2.5,2.5-3.8,3.1c-1.3,0.5-2.5,0.8-3.8,0.8c-1.4,0-2.7-0.3-3.9-0.8
		c-1.2-0.5-2.3-1.2-3.3-1.8c-1.1-0.7-2.1-1.5-3.1-2.4l-8.6-6.7l34.7-34.3c-2.3,0.1-4.3,0.3-5.9,0.5s-3.1,0.3-4.4,0.4
		c-1.3,0.1-2.5,0.2-3.7,0.3c-1.2,0.1-2.4,0.3-3.8,0.4h-1.8c-4.4,0-7.2-1-8.7-3c-1.4-2-2.1-4.1-2.1-6.4c0.1-2.7,1-5.8,2.7-9.2
		l23.3-37.9c-3.7,0.1-7.3,0.3-10.8,0.4c-3.5,0.1-6.9,0.3-10,0.4c-1.9,0.1-3.4-0.7-4.4-2.5c-1-1.8-1.8-3.9-2.3-6.2
		c-0.5-2.7-0.9-5.8-1-9.2l44.1-3.3l-9.6-16.5c1.5-1.2,3-2.3,4.5-3.3c1.4-0.8,2.8-1.6,4.3-2.2c1.5-0.7,3-1,4.5-1
		c1.8,0,3.1,0.6,4.1,1.8c3.1,3.5,5.6,6.3,7.4,8.2c1.8,1.9,3.7,4.2,5.6,6.9c1,1.4,1.6,2.8,1.8,4.3l41.8-3.1l-0.2,9.6
		c-0.3,2.2-1,4.2-2,5.9c-1,1.5-2.3,2.9-4.1,4.3c-1.8,1.4-4.3,2.2-7.5,2.4c-1.6,0.1-3.8,0.3-6.6,0.5c-2.8,0.2-6,0.4-9.7,0.6
		s-7.7,0.4-12,0.5c-4.4,0.1-8.9,0.3-13.7,0.6c-1.5,2.2-3.8,5.4-6.9,9.7c-3.1,4.3-6.6,8.9-10.4,13.8c-2,2.6-3.4,4.7-4,6.3
		c-0.6,1.6-0.8,2.9-0.5,3.7c0.3,0.8,0.8,1.4,1.6,1.6c0.8,0.3,1.6,0.4,2.2,0.4c0.7,0,1.1-0.1,1.2-0.2c0.3,0,0.5,0,0.6,0l21-3.9
		l28.2-27.9c2.4,2,4.5,4.1,6.1,6.1c1.4,1.8,2.3,3.7,3,5.7c0.6,2,0.2,3.9-1.3,5.7c-3.4,4.2-7.2,8.7-11.4,13.6
		c-4.2,4.8-8.6,9.8-13.1,14.8c-4.5,5-9,10-13.5,14.9c-4.5,4.9-8.7,9.5-12.8,13.8c-4,4.3-7.6,8.2-10.7,11.6
		C519.8,154,517.3,156.7,515.6,158.8z M595.5,172c2.7,2.6,4.2,5,4.5,7.2c0.3,2.2,0.1,4.2-0.6,5.8c-1,2-2.4,3.9-4.3,5.5l-9.2,8.2
		l-33.3-37.9c-5.7,7.3-11.1,14.1-16,20.2c-5,6.1-9.1,11.1-12.3,15.1c-1.4,1.5-2.8,2.6-4.3,3.2c-1.5,0.6-3,0.9-4.5,0.9
		c-1.5,0-2.9-0.2-4.3-0.6c-1.4-0.4-2.6-1-3.7-1.6c-1.2-0.7-2.4-1.4-3.5-2.2l-8.6-6.3l83-91c2.6,2,4.8,4,6.5,5.9
		c1.5,1.8,2.6,3.6,3.4,5.6c0.7,2,0.4,3.8-0.9,5.6c-3.5,4.8-7.3,9.7-11.2,14.7c-3.9,5-7.9,10.1-11.8,15.3c0.3,0.1,0.5,0.3,0.8,0.4
		c0.3,0.1,0.5,0.3,0.8,0.6c4.8,4.1,8.6,7.3,11.5,9.7c2.9,2.4,5.4,4.4,7.3,6.1c2,1.7,3.7,3.3,5.2,4.7
		C591.7,168.5,593.5,170.1,595.5,172z"/>
	<path class="st0" d="M803,89.4l-1.2,14.9c-0.4,2.3-1.2,4.4-2.2,6.1c-1,1.6-2.3,3.1-4.1,4.4c-1.8,1.3-4.2,2.1-7.3,2.3
		c-1,0-2.8,0-5.5,0.1c-2.7,0.1-6.1,0.1-10,0.2c-3.9,0.1-8.4,0.1-13.5,0.2c-5,0.1-10.4,0.2-16.1,0.3l6.7,69.8
		c-0.3,4.5-1.7,7.9-4.4,10.1c-2.7,2.2-6.2,3.4-10.5,3.4c-1.2,0-4.5-0.2-9.7-0.7c-5.2-0.5-11.2-1.1-17.7-1.7
		c-6.6-0.7-13.1-1.4-19.5-2.1c-6.4-0.7-11.4-1.5-14.9-2.1c-2.2-0.7-3.7-1.6-4.5-2.9c-0.8-1.2-1.4-2.4-1.6-3.5
		c-0.1-1.5,0.1-3,0.6-4.5l3.5-10.4L709,179c0.3,0.1,0.5,0.2,0.8,0.2c0.4,0.1,1.2,0.2,2.2,0.2c1.6,0,3.4-0.5,5.4-1.6
		c2-1.1,3.2-3.5,3.8-7.1c0.1-1.2,0.1-3.6,0-7c-0.1-3.5-0.4-7.6-0.7-12.4c-0.3-4.8-0.7-10.1-1-15.8c-0.3-5.7-0.7-11.4-1.1-16.9
		c-8.2,0.1-16.4,0.3-24.7,0.4c-8.3,0.1-16.1,0.2-23.4,0.3c-7.3,0.1-13.9,0.1-19.8,0.1s-10.6,0-14.2,0c-2,0-3.5-1-4.5-2.9
		c-1-1.9-1.6-4-1.8-6.3c-0.4-2.7-0.5-5.8-0.2-9.2l86.9-5.7c0-1.9,0-3.6-0.1-5.1c-0.1-1.5-0.1-2.8-0.1-3.9c0-2.3,0.2-4.2,0.6-5.8
		c0.4-1.6,0.9-2.9,1.6-4c0.7-1.2,1.5-2.2,2.4-3.1l36.1-33c-14.1,2.4-27.5,4.8-40,6.9c-5.3,1-10.7,1.9-16.3,3c-5.6,1-10.9,2-16.1,2.9
		c-5.2,0.9-9.9,1.7-14.3,2.6c-4.4,0.8-8,1.5-10.8,2c-0.7,0.1-1.6,0.2-2.9,0.2c-2.2,0-3.8-0.5-4.9-1.5c-1.1-1-1.9-2.1-2.4-3.4
		c-0.5-1.5-0.8-3.1-0.8-4.9l-1.4-13.5c20.8-2.7,39.8-5.2,56.9-7.3c7.3-0.9,14.6-1.9,21.8-2.9c7.2-0.9,13.8-1.8,19.8-2.7
		c6-0.8,11.1-1.5,15.5-2.1c4.4-0.6,7.2-1.1,8.6-1.3c0.5-0.1,1.1-0.2,1.5-0.2c0.5,0,0.9,0,1.3,0c2.2,0,3.8,0.4,4.9,1.2
		c1.1,0.8,1.9,1.8,2.4,2.9c0.5,1.4,0.8,2.8,0.8,4.3v7.3c0,0.7-0.1,1.4-0.2,2.2c-0.1,0.7-0.4,1.5-0.7,2.3c-0.3,0.9-0.9,1.9-1.5,3
		c-1.4,1.9-3.6,4.7-6.7,8.3c-3.1,3.6-6.5,7.5-10.2,11.6c-3.7,4.1-7.3,8.3-10.8,12.3c-3.5,4.1-6.3,7.5-8.2,10.2
		c-0.7,1-1.2,1.9-1.5,2.9c-0.3,1-0.6,1.8-0.7,2.7c-0.1,1-0.1,1.8,0,2.7l0.2,1.6L803,89.4z"/>
	<path class="st0" d="M1007.8,177.3l-3.5,16.5c-0.4,1.4-1.1,2.4-1.9,3.3c-0.9,0.8-1.9,1.5-3,1.9c-1.1,0.5-2.3,0.8-3.6,0.9
		c-1.3,0.1-2.5,0.2-3.6,0.2c-1.2-0.1-4.7-0.5-10.3-1.2c-5.6-0.7-12.5-1.5-20.7-2.5s-17.1-2.1-26.9-3.4c-9.8-1.2-19.5-2.4-29.2-3.7
		c-9.7-1.2-18.7-2.4-27.2-3.6c-8.5-1.2-15.6-2.1-21.3-3c-0.3,1.5-0.5,2.7-0.6,3.7c-0.1,0.9-0.2,1.6-0.2,1.8
		c-0.5,2.7-1.7,4.6-3.6,5.7c-1.8,1.1-4,1.6-6.4,1.6l-16.7-0.8l20.8-98.7c0.3-0.7,0.3-1.4,0-2c-0.1-0.4-0.5-0.8-1-1.2
		c-0.5-0.4-1.6-0.6-3.1-0.6c-1,0.1-2,0.2-3.2,0.2c-1.2,0-2.5,0-4,0c-1.9-0.1-3.3-0.7-4.3-1.6c-1-1-1.6-2-2-3.1
		c-0.3-1.4-0.3-2.9-0.2-4.7l1.2-9.4H862c2,0,3.8,0.3,5.3,1c1.2,0.7,2.3,1.7,3.2,3c0.9,1.3,1.1,3.3,0.5,6c-0.7,4.2-1.5,9.7-2.5,16.3
		c-1,6.7-2.1,13.8-3.2,21.3c-1.1,7.5-2.2,15.1-3.3,22.7c-1.1,7.6-2,14.6-2.9,21L1007.8,177.3z M854.4,67.4l-18.4-36.1
		c1.4-1.1,2.8-2.1,4.3-3.1c1.2-0.7,2.6-1.3,4.1-1.9c1.5-0.6,2.9-0.9,4.3-0.9c1.6,0,2.9,0.5,3.9,1.6c1.2,1.2,2.5,2.6,3.9,4.2
		c1.4,1.6,2.7,3.2,3.9,4.9c1.2,1.7,2.4,3.3,3.5,4.8c1.1,1.5,2,2.7,2.7,3.7c1.5,2,2.3,4,2.3,5.8c0.1,1.8-0.2,3.5-0.9,5
		c-0.8,1.8-1.9,3.3-3.3,4.7L854.4,67.4z M886.2,92.7h-0.4c-2.4,0-4.4-0.9-5.7-2.8c-1.4-1.8-2.4-3.9-3.1-6.2c-0.7-2.6-1.1-5.6-1.2-9
		l124.4-12.9l-0.2,11.4c0,2.2-0.5,4.2-1.4,6.1c-0.8,1.5-2.1,3-4,4.4c-1.8,1.4-4.5,2.3-8.1,2.5l-23.7,1.8c-0.4,2.9-1,6.9-1.6,12
		c-0.7,5.2-1.4,10.4-2,15.7c-0.7,5.3-1.3,10.2-1.7,14.8c-0.5,4.6-0.7,7.7-0.7,9.5c0,2.3,0.4,4,1.1,5.2c0.7,1.2,1.6,2,2.6,2.5
		c1.1,0.5,2.3,0.8,3.7,0.8c6.1,0,12.1-0.8,18-2.4c3.5-0.9,6.5-2,8.9-3.3c2.4-1.2,4.3-2.4,5.8-3.5c1.6-1.4,3-2.7,4.1-4.1l4.7,8.6
		c1.5,3.7,1.9,7.1,1.2,10.2c-0.5,2.7-2.2,5.3-5,7.8c-2.8,2.4-7.7,4.1-14.8,5.1c-4.9,0.5-9.7,0.9-14.4,1c-4.7,0.1-8.9,0.2-12.5,0.2
		h-8.8c-3.8,0-6.7-0.8-8.6-2.4c-1.9-1.6-3.3-3.4-4.1-5.3c-1-2.3-1.4-5-1.2-8l2.7-63l-17.3,1.2c-1.8,6.3-3.5,12.9-5.3,20
		c-1.8,7.1-3.5,13.8-5.1,20.2c-1.6,6.4-3.2,12.1-4.6,17.2s-2.8,8.9-4,11.5c-1.1,2.7-2.5,4.5-4.3,5.4c-1.8,0.9-3.5,1.3-5.3,1.3
		c-0.7,0-1.4-0.1-2-0.2c-0.7-0.1-1.4-0.3-2-0.4c-0.5-0.1-1.1-0.3-1.6-0.6l-11.8-4.3l26.1-69.2c-2.7,0.1-5.4,0.3-8.2,0.4
		C891.9,92.4,889.1,92.5,886.2,92.7z M896.9,52.3h-0.6c-2.6,0-4.6-0.9-5.9-2.9c-1.4-1.9-2.4-4-3.1-6.3c-0.7-2.6-1.1-5.6-1.2-9
		l104-11.4l-0.6,11.4c0,2.3-0.5,4.4-1.4,6.1c-0.7,1.6-1.9,3.1-3.8,4.5c-1.8,1.4-4.5,2.2-8.1,2.4c-6.4,0.4-12.2,0.8-17.4,1.2
		c-5.2,0.4-10.7,0.8-16.4,1.2c-5.7,0.4-12.1,0.9-19.3,1.3C915.9,51.4,907.2,51.9,896.9,52.3z"/>
	<path class="st0" d="M93.3,399.9c0.7,1.6,1,3.2,1,4.7c0.1,1.4,0,2.8-0.5,4.3c-0.5,1.5-1.6,2.9-3.4,4.3
		c-17.5,10.6-31.2,18.7-40.9,24.2c-9.7,5.5-16.2,8.3-19.5,8.3c-2.7,0.1-4.8-0.6-6.1-2.2c-1.4-1.6-2.4-3.4-3.1-5.3
		c-0.7-2.3-1-4.9-0.8-7.8l6.5-161.8c1.2-0.1,2.7-0.3,4.3-0.4c1.4,0,2.9,0,4.7-0.1c1.8-0.1,3.8-0.1,6.1-0.1c2.3,0,4,0.5,5.1,1.6
		c1.1,1.1,1.8,2.3,2,3.7c0.4,1.5,0.5,3.3,0.2,5.3l-3.3,49l43.7-4.5l-0.2,9.6c0,2.2-0.3,4.1-0.8,5.7c-0.5,1.5-1.4,2.8-2.7,4
		c-1.2,1.2-3,1.8-5.3,1.9c-5.4,0.3-11.2,0.5-17.1,0.8c-6,0.3-12.2,0.5-18.8,0.8L40.5,405c-0.3,3.5,0.1,5.8,1,6.9
		c1,1.1,2,1.6,3.1,1.6c0.9,0,2-0.3,3.1-0.8c0.4-0.1,0.8-0.3,1.2-0.6l36.9-24.1L93.3,399.9z M193.9,417.9c1.5,3.7,1.9,7.1,1.2,10.2
		c-0.5,2.7-2.2,5.3-4.9,7.9c-2.7,2.5-7.6,4.2-14.7,5.2c-3.7,0.4-8.4,0.7-14.1,0.8c-5.7,0.1-11.4,0.2-17.1,0.3
		c-5.7,0.1-10.9,0.1-15.5,0.1c-4.6,0-7.7,0-9.2,0c-3.8,0.1-6.7-0.6-8.7-2.3c-2-1.7-3.4-3.5-4.2-5.4c-1-2.3-1.4-5-1.2-8l6.7-157.9
		l12.2-0.2h1c3.1,0,5.4,0.6,6.7,1.8c1.4,1.2,2.2,2.6,2.7,4.1c0.4,1.8,0.4,3.8,0,6.1l-4.3,55.3l51-30l4.1,9.4c0.9,2,1.5,4,1.6,5.9
		c0.1,1.6-0.1,3.3-0.8,5.1c-0.7,1.8-2.2,3.2-4.5,4.3c-3.5,1.8-6.9,3.5-10,5.1c-3.1,1.6-6.6,3.4-10.3,5.4c-3.7,2-8.1,4.2-13,6.7
		c-4.9,2.5-10.8,5.5-17.7,9.1c-0.7,0.3-1.4,0.5-2.2,0.8c-0.5,6.9-1.1,13.6-1.5,20c-0.5,6.4-0.9,12.1-1.2,17.2
		c-0.3,5.1-0.6,9.4-0.8,12.8c-0.2,3.4-0.3,5.6-0.3,6.5c0,2,0.3,3.6,0.9,4.8c0.6,1.2,1.4,2,2.4,2.5c1,0.5,2.2,0.9,3.5,1
		c1.3,0.1,2.8,0.2,4.4,0.2c2,0,4.6,0,7.6-0.1c3.1-0.1,6.3-0.2,9.7-0.3c3.4-0.1,6.6-0.4,9.7-0.7c3.1-0.3,5.6-0.8,7.6-1.3
		c3.4-1,6.3-2,8.6-3.3c2.3-1.2,4.2-2.4,5.7-3.7c1.8-1.4,3.2-2.7,4.3-4.1L193.9,417.9z"/>
	<path class="st0" d="M235.7,381.1c3.1,0.8,5.8,1.8,8.2,3.1c2,1.1,3.8,2.3,5.3,3.7c1.5,1.4,2,3,1.6,4.9c-0.1,1.5-0.6,3.6-1.3,6.3
		c-0.7,2.7-1.6,5.8-2.7,9.3s-2.1,7.2-3.3,11.1c-1.2,3.9-2.3,7.9-3.4,11.8c-0.7,2.9-2,4.7-4.1,5.6c-2,0.9-4,1.3-5.9,1.3
		c-1.4,0-2.7-0.1-4.1-0.4c-0.7-0.1-1.3-0.3-1.8-0.4l-10.2-2.7L235.7,381.1z M268.1,365.2c0,2.2-0.5,3.9-1.6,5.2
		c-1.1,1.3-2.4,2.3-3.9,3c-1.5,0.7-3,1.1-4.6,1.2c-1.6,0.1-2.8,0.2-3.6,0.2h-1l-9.6-0.4l2.7-47.5c-1.2,1.8-2.7,3.6-4.5,5.6
		c-1.8,2-3.8,3-6.1,3c-1.2,0-2.4-0.2-3.5-0.7c-1.1-0.5-2-1.1-2.9-1.7c-1.1-0.7-2-1.4-2.9-2.2l-8.4-8l56.1-61.4
		c2.3,2,4.2,4.1,5.7,6.1c1.4,1.9,2.3,3.8,3,5.8c0.6,2,0.3,3.8-0.9,5.4c-0.8,1.2-2.7,3.8-5.5,7.8c-2.9,3.9-6.1,8.4-9.8,13.5
		c0.3,0.8,0.4,1.5,0.4,2c0.1,5.2,0.2,10.5,0.3,16.1c0.1,5.6,0.1,11.1,0.2,16.6c0.1,5.5,0.1,10.9,0.1,16.1
		C267.9,356.1,268,360.9,268.1,365.2z M365.6,429.7c0.7,3,0.6,5.6-0.2,8c-0.7,2-2.2,3.9-4.5,5.5c-2.3,1.6-6.1,2.4-11.4,2.4h-76.9
		c-4.4,0-7.7-0.5-9.9-1.5c-2.2-1-3.8-2.1-4.8-3.4c-1.1-1.5-1.6-3.2-1.4-5.1l2-57.1h12.2c3,0,5.2,0.5,6.6,1.4c1.4,1,2.4,2,3,3.1
		c0.7,1.4,0.9,2.9,0.8,4.5c-0.5,5.7-1,10.9-1.4,15.7c-0.3,4.1-0.5,8.1-0.8,11.9c-0.3,3.9-0.4,6.4-0.4,7.6c0.1,1.5,0.6,2.6,1.5,3.4
		c0.9,0.7,1.9,1.3,3,1.5c1.2,0.4,2.7,0.6,4.3,0.6h10c3,0,6.3,0,9.9,0c3.6,0,7.1,0,10.6-0.1c3.5-0.1,6.7-0.1,9.7-0.2
		c3-0.1,5.3-0.2,6.9-0.3c5.7-0.5,10.3-1.3,13.9-2.1c3.5-0.9,6.4-1.7,8.6-2.5c2.4-1,4.4-1.9,5.7-2.9L365.6,429.7z M272.6,313.2
		l31.6-52c2.7,1.5,5,3.1,6.9,4.9c1.6,1.5,3,3.1,4.1,4.8c1.1,1.7,1.2,3.4,0.4,5.2c-0.3,1-0.7,2.1-1.2,3.4c-0.5,1.3-1.2,2.8-2,4.6
		l60.2-5.1h2c0.9,0,2.1,0.1,3.6,0.3c1.4,0.2,2.8,0.6,4,1.3c1.2,0.7,2.2,1.7,3,3.1c0.7,1.4,1,3.2,0.7,5.5c-0.3,4.4-0.5,7.7-0.7,10
		c-0.2,2.3-0.4,4.4-0.7,6.3c-0.5,3.7-1.8,6-3.9,7c-2,1-3.9,1.5-5.7,1.5c-0.4,0-0.8,0-1.2-0.1c-0.4-0.1-0.7-0.1-1-0.1
		c-0.3,0-0.5-0.1-0.8-0.2l-12.6-1l3.3-11.2c0.4-0.9,0.5-1.8,0.2-2.7c-0.1-0.7-0.6-1.3-1.4-1.8c-0.8-0.5-2.2-0.8-4.1-0.8h-1.2
		l-10.6,0.8c0.7,6.5,1.3,13.6,1.7,21.3c0.5,7.7,0.9,14.9,1.3,21.5c0.5,7.8,1,15.5,1.4,23.3c-0.1,2-0.6,3.8-1.4,5.3
		c-0.7,1.4-1.7,2.6-3.1,3.7c-1.4,1.1-3.3,1.6-5.9,1.6c-5.2,0-10.3-0.3-15.3-0.9c-5-0.6-10.1-1.3-15.1-1.9c-1.6-0.3-2.8-0.8-3.4-1.6
		c-0.6-0.8-1-1.8-1.1-2.9c-0.3-1.1-0.2-2.3,0.2-3.7l2.7-10l9,2.7c0.3,0,0.5,0,0.6,0c0.4,0.1,1,0.2,1.8,0.2c1.4,0,2.8-0.4,4.4-1.2
		c1.6-0.8,2.4-2.7,2.5-5.7c0-1.6,0-4.2-0.1-7.8c-0.1-3.5-0.1-7.6-0.2-12.2c-0.1-4.6-0.1-9.5-0.2-14.7c-0.1-5.2-0.1-10.1-0.1-14.9
		c-3.1,0.3-6.4,0.5-9.8,0.8c-3.4,0.3-6.9,0.5-10.6,0.8l-7.3,14.9c-1.1,1.9-2.3,3.2-3.6,4c-1.3,0.7-2.6,1.1-4,1.1
		c-1.9,0-3.8-0.5-5.7-1.4c-0.8-0.3-1.6-0.7-2.4-1.2L272.6,313.2z M314.2,328.3c-2.3,6.8-4.9,12.9-7.6,18.2c-2.8,5.3-5.1,10.2-7,14.7
		c-1.4,3.4-2.9,5.6-4.7,6.7c-1.8,1.1-3.4,1.6-4.9,1.6c-0.7,0-1.3-0.1-1.8-0.2c-0.5-0.1-1-0.3-1.4-0.4c-0.5-0.1-1-0.3-1.4-0.6
		l-11-5.5l28.2-47.1c3,1.4,5.3,2.6,6.8,3.8c1.6,1.2,2.9,2.5,4.1,4.1C314.5,325.1,314.8,326.7,314.2,328.3z M328.9,414.8l-34.3-32.4
		c1.5-1.6,3-3.1,4.5-4.5c1.4-1.1,2.9-2.1,4.5-3.1c1.6-1,3.3-1.4,4.9-1.4c0.9,0,2.8,0.7,5.4,2.2c2.7,1.5,5.5,3.2,8.5,5.1
		c3,1.9,5.8,3.8,8.5,5.6s4.5,3.1,5.4,3.8c2.4,1.9,3.8,3.8,4.2,5.8c0.3,2,0.2,3.8-0.5,5.4c-0.7,1.9-1.8,3.8-3.5,5.7L328.9,414.8z
		 M350.5,322.4c1.5-1.1,3-2.1,4.5-3.1c1.4-0.7,2.8-1.3,4.3-1.9c1.5-0.6,2.9-0.9,4.3-0.9c1.5,0,2.7,0.5,3.7,1.4
		c4.8,5.3,8.7,10.2,11.7,14.7c3.1,4.5,6.2,8.5,9.3,12c2.2,2.7,3.4,5.1,3.6,7c0.2,2,0,3.6-0.7,5c-0.7,1.6-1.8,3-3.5,4.1l-10.2,7.1
		L350.5,322.4z M393,414.6c1.8,2.4,2.5,4.7,2.1,6.6c-0.3,2-1.1,3.7-2.1,5.2c-1.2,1.6-2.9,3.1-5.1,4.5l-9.8,5.5L352,387.9
		c1.5-1,3.1-1.8,4.7-2.4c1.5-0.7,3.1-1.3,4.8-1.7c1.7-0.5,3.3-0.7,4.8-0.7c2.2,0,3.8,0.5,4.9,1.6c1.1,1.2,2.7,3.3,4.9,6.1
		c2.2,2.9,4.4,5.9,6.7,9.2c2.3,3.3,4.5,6.3,6.4,9.1C391.2,411.8,392.4,413.6,393,414.6z"/>
	<path class="st0" d="M441.5,379.5c3.1,0.8,5.8,1.8,8.2,3.1c2,1.1,3.8,2.3,5.3,3.7c1.5,1.4,2,3,1.6,4.9c-0.1,1.5-0.6,3.6-1.3,6.3
		c-0.7,2.7-1.6,5.8-2.7,9.3s-2.1,7.2-3.3,11.2c-1.2,4-2.3,7.9-3.4,11.7c-0.7,2.9-2.1,4.8-4.2,5.7c-2.1,1-4.2,1.4-6.2,1.4
		c-1.2,0-2.5-0.1-3.9-0.4c-0.5-0.1-1.1-0.3-1.6-0.4l-10.2-2.9L441.5,379.5z M460.1,306.9c-0.7,0.1-1.7,0.2-3.1,0.2
		c-0.1,3-0.3,7.1-0.6,12.2c-0.3,5.2-0.6,10.5-0.9,16.1c-0.3,5.6-0.7,11-1.1,16.3c-0.4,5.3-0.7,9.7-1,13.3c-0.3,3.5-1.6,5.8-3.9,6.7
		c-2.3,1-4.4,1.4-6.3,1.4c-1,0-1.6-0.1-2-0.2c-0.3,0-0.5,0-0.8,0l-10.6-1.8l10.2-63.2c-0.7,0-1.4,0-2.1,0.1
		c-0.7,0.1-1.5,0.1-2.1,0.1c-2.7,0.1-4.8-0.7-6.2-2.4c-1.4-1.8-2.5-3.7-3.2-5.7c-0.7-2.6-1.1-5.4-1.2-8.6l34.9-3.7l-0.2-20.4
		c0.3,0,0.6-0.1,1-0.2h2.4c1.4,0,2.9,0.1,4.6,0.3c1.7,0.2,3.3,0.6,4.9,1.1c1.6,0.5,2.9,1.3,4,2.3c1.1,1,1.6,2.4,1.6,4.2
		c0.3,1.9,0.4,3.7,0.5,5.5c0.1,1.8,0.2,3.5,0.3,5.1l26.9-2.9l-0.4,10.2c0,2.2-0.5,4.2-1.4,6.1c-0.8,1.5-2.2,2.9-4.1,4.3
		c-1.9,1.4-4.6,2.2-8.2,2.4c-2.7,0.1-4.8,0.2-6.3,0.2c-1.5,0-3.1,0.1-4.7,0.2c0,1,0.1,1.7,0.2,2.2c1.6,1,3.6,2.1,6,3.6
		c2.4,1.4,4.7,2.9,7,4.3c2.3,1.4,4.4,2.8,6.3,4.1c1.9,1.3,3.3,2.3,4.1,3c2.4,1.9,3.8,3.8,4.2,5.8c0.3,2,0.2,3.8-0.5,5.4
		c-0.7,1.9-1.8,3.8-3.5,5.7l-7.8,7.8l-14.1-13.3l1.4,25.7c0.3,2.6-0.1,4.6-1.2,6c-1.1,1.4-2.4,2.5-4,3.3c-1.6,0.7-3.2,1.2-4.9,1.4
		c-1.7,0.2-3.1,0.3-4.2,0.3h-1.4l-8.2,0.4L460.1,306.9z M571.5,428.1c0.7,3,0.6,5.6-0.2,8c-0.7,2-2.2,3.9-4.5,5.5
		c-2.3,1.6-6.1,2.4-11.4,2.4h-76.9c-4.4,0-7.6-0.5-9.9-1.5c-2.2-1-3.8-2.1-4.8-3.4c-1.1-1.5-1.6-3.2-1.4-5.1l2-57.1h12.2
		c3,0,5.2,0.5,6.6,1.4c1.4,1,2.4,2,3,3.1c0.7,1.4,1,2.9,0.8,4.7c-0.5,5.7-1,10.9-1.4,15.7c-0.3,3.9-0.5,7.9-0.8,11.7
		c-0.3,3.9-0.4,6.4-0.4,7.6c0.1,1.5,0.6,2.6,1.5,3.4c0.9,0.7,1.9,1.3,3,1.5c1.2,0.4,2.7,0.6,4.3,0.6c1.9,0,3.9,0.1,5.9,0.2h13.9
		c5.3,0,10.6-0.1,15.8-0.2c5.2-0.1,9.1-0.3,11.5-0.6c5.7-0.5,10.3-1.3,13.9-2.1c3.5-0.9,6.4-1.7,8.6-2.5c2.4-1,4.4-1.9,5.7-2.9
		L571.5,428.1z M510.9,372c1.2,0,3.1,0.7,5.7,2.1c2.6,1.4,5.3,3.1,8.3,4.9c2.9,1.8,5.7,3.7,8.4,5.5s4.5,3.2,5.6,4
		c2.4,1.9,3.8,3.8,4.2,5.8c0.3,2,0.2,3.8-0.5,5.4c-0.7,1.9-1.8,3.8-3.5,5.7l-7.5,7.8l-34.3-32.4c1.4-1.6,2.9-3.1,4.5-4.5
		c1.2-1.1,2.7-2.1,4.3-3C507.6,372.4,509.3,372,510.9,372z M510.3,369.1l-1-96.5c0.3,0,0.5-0.1,0.8-0.2h2c1.9,0,4.2,0.2,6.8,0.7
		c2.7,0.5,4.7,1.7,6,3.6l53.9-5.7c0.3,0,0.5-0.1,0.6-0.2h1.8c1.1,0,2.3,0.1,3.6,0.4c1.3,0.3,2.5,0.8,3.7,1.5
		c1.2,0.7,2.1,1.8,2.9,3.3c0.7,1.4,1.1,3.4,0.9,5.8c-0.4,9.9-0.7,18.7-0.8,26.2c-0.1,7.5-0.2,14.4-0.3,20.5
		c-0.1,6.1-0.1,11.8-0.2,17.1c-0.1,5.3-0.2,10.7-0.3,16.1c0,1.6-0.4,2.9-1.1,3.9c-0.7,1-1.6,1.7-2.7,2.1c-1,0.5-2.1,0.8-3.4,1
		c-1.2,0.2-2.3,0.3-3.3,0.3c-1.1,0-1.8-0.1-2.2-0.2c-0.3,0-0.5,0-0.8,0l-8.2-0.8l0.4-5.5c-0.4,0-0.8,0-1.2,0.1
		c-0.4,0.1-0.9,0.1-1.4,0.1c-2.6,0.1-4.7,0.2-6.4,0.3c-1.7,0.1-3.6,0.1-5.8,0.2c-2.2,0.1-5,0.1-8.6,0.2c-3.5,0.1-8.5,0.2-14.9,0.3
		c-1.6,2.3-3.8,3.7-6.6,4.3c-2.8,0.5-5.5,0.8-8.1,0.8L510.3,369.1z M573.3,293.8c0.1-2.3-0.4-3.8-1.7-4.4c-1.3-0.6-2.5-0.9-3.6-0.9
		h-1.2c-0.1,0.1-0.3,0.2-0.4,0.2c-4.6,0.5-9.3,1-13.9,1.4c-3.9,0.5-8.2,1.1-12.6,1.6c-4.5,0.5-8.6,1.2-12.4,1.8l0.6,8.4l35.1-5.1
		l0.2,8.8c-0.1,1.8-0.6,3.3-1.4,4.7c-0.7,1.2-1.8,2.4-3.3,3.5c-1.5,1.1-3.6,1.8-6.3,2c-2.2,0.1-3.9,0.3-5.3,0.5
		c-1.4,0.2-2.8,0.4-4.2,0.6c-1.4,0.2-3.1,0.4-5.1,0.5c-2,0.1-4.7,0.3-8.3,0.4l0.6,8.6l33-4.9l0.2,8.8c-0.1,1.8-0.6,3.3-1.4,4.7
		c-0.7,1.2-1.8,2.3-3.3,3.4c-1.5,1-3.6,1.7-6.3,1.9c-2.2,0.1-3.9,0.3-5.2,0.4c-1.3,0.1-2.6,0.3-3.9,0.5c-1.3,0.2-2.8,0.4-4.6,0.5
		c-1.8,0.1-4.2,0.3-7.3,0.6l0.6,6.1l38.4-3.3L573.3,293.8z M598.8,413c1.8,2.4,2.5,4.7,2.1,6.6c-0.3,2-1.1,3.7-2.1,5.2
		c-1.2,1.6-2.9,3.1-5.1,4.5l-9.8,5.5L558,386.2c1.5-0.8,3-1.6,4.5-2.4c1.4-0.5,2.9-1.1,4.5-1.5c1.6-0.5,3.2-0.7,4.7-0.7
		c2.2,0,3.9,0.6,5.3,1.8c1.1,1.1,2.7,3.1,4.9,5.9c2.2,2.9,4.4,5.9,6.7,9.1c2.3,3.2,4.5,6.2,6.4,9C597,410.1,598.3,412,598.8,413z"/>
	<path class="st0" d="M804,424.4l-6.9,6.1c-1,0.8-2,1.6-3.1,2.2c-1.1,0.7-2.2,1.2-3.4,1.6c-1.2,0.4-2.5,0.6-4,0.6
		c-1.2,0-2.5-0.2-3.8-0.7c-1.3-0.5-2.6-1.3-3.8-2.5c-4.1-4.2-9.4-11.2-16-21c-6.6-9.8-14.8-21.1-24.6-33.9
		c0.4,5.2,0.8,10.6,1.1,16.3c0.3,5.7,0.7,11.1,1,16.1c0.3,5,0.6,9.5,0.8,13.3c0.2,3.8,0.3,6.4,0.3,7.8c0.1,3.1-0.2,5.6-1,7.4
		c-0.8,1.8-1.8,3.2-3,4.2c-1.2,0.9-2.3,1.6-3.6,1.8c-1.2,0.3-2.2,0.4-3.1,0.4H730l-27.5-2.7c-1.8-0.3-3.1-0.8-4.1-1.6
		c-1-0.8-1.6-1.7-2-2.7c-0.4-1.2-0.6-2.5-0.6-3.9l1-13.5l14.7,3.7c0.3,0.1,0.5,0.3,0.8,0.4c0.3,0,0.6,0,0.9,0.1
		c0.3,0.1,0.6,0.1,0.9,0.1c1.1,0,2.1-0.4,3.2-1.3c1-0.9,1.6-2.9,1.7-6c0.1-1.5,0.2-4.4,0.3-8.7c0.1-4.3,0.2-9,0.5-14.2
		c-4.9,4.2-10.2,8.7-15.8,13.5c-5.6,4.8-11,9.3-16,13.6c-5,4.3-9.5,8-13.4,11.2c-3.9,3.2-6.6,5.4-8.1,6.6c-2.4,1.9-4.9,2.9-7.3,2.9
		c-2.2,0-4-0.6-5.5-1.8c-0.8-0.5-1.5-1.2-2-1.8l-8.4-9.8l77.3-53.2c0.1-1.4,0.2-2.6,0.3-3.7c0.1-1.1,0.1-2,0.1-2.9
		c0-0.3,0-0.6,0.1-1c0.1-0.4,0-0.8-0.1-1.2c-5.3,3.8-11.4,8-18.3,12.6c-6.9,4.6-13.5,9.1-20,13.4c-6.5,4.3-12.2,8.1-17.3,11.4
		c-5.1,3.3-8.6,5.6-10.5,6.8c-2.2,1.5-4.4,2.2-6.7,2.2c-1.4,0-2.5-0.2-3.6-0.6c-1-0.4-1.9-1-2.8-1.6c-0.8-0.5-1.6-1.2-2.2-2
		l-6.9-9.8l69.4-37.9c-4.1-0.4-8.2-0.7-12.3-1c-4.2-0.3-7.1-0.5-8.9-0.6c-7.8,5.2-14.6,9.7-20.5,13.5c-5.9,3.8-9.7,6.3-11.3,7.3
		c-1.2,1-2.4,1.6-3.6,1.9c-1.2,0.3-2.3,0.5-3.4,0.5c-1.5,0-2.8-0.2-3.9-0.7c-1.1-0.5-2-1-2.9-1.5c-1.1-0.7-2-1.4-2.7-2.2l-7.5-9.6
		l31-17.7l-6.1,0.6l-2.9-25.1c-1.1,0.3-2,0.4-2.7,0.4c-1.5,0-3-0.3-4.4-1c-1.4-0.7-2.7-1.4-3.8-2.2c-1.4-0.9-2.6-2-3.7-3.3l-4.5-5.1
		l64.1-53.9c1.6,1.4,3.1,2.7,4.3,4.1c1.1,1.2,2,2.5,2.7,4c0.7,1.4,0.9,2.8,0.6,4.2c4.2-0.3,8.8-0.6,13.9-0.9c5-0.3,9.9-0.6,14.6-0.9
		c4.7-0.3,8.9-0.5,12.8-0.8c3.8-0.3,6.7-0.5,8.6-0.6h1.4c2.6,0,4.3,0.4,5.1,1.3c0.8,0.9,1.2,1.9,1,3c0,1.4-0.4,2.9-1.2,4.5
		c-0.8,1.1-1.8,2.4-3.1,4.1c-1.1,1.4-2.5,3-4.2,5c-1.7,2-3.8,4.3-6.2,7l30.8-2.7c0.3,0,0.6-0.1,1-0.2h2.9c1.4,0,2.9,0.1,4.7,0.4
		c1.8,0.3,3.4,0.8,5,1.5c1.6,0.7,2.9,1.8,4,3.3c1.1,1.4,1.6,3.3,1.6,5.6c-0.3,2.9-0.6,6-1.1,9.4c-0.5,3.4-0.9,6.7-1.3,9.8
		c-0.4,3.1-0.8,6-1.1,8.6c-0.3,2.6-0.5,4.6-0.5,6.1c-0.3,2.2-1,3.8-2.1,5c-1.2,1.2-2.4,2.1-3.8,2.8c-1.6,0.7-3.5,1.1-5.5,1.2
		l-14.3,0.8l1.4-5.5l-60,2.9c-1,0.7-1.9,1.3-2.8,1.8c-0.9,0.5-1.9,1.2-3,1.8l27.7,2c1.9,0.3,3.6,0.8,5.1,1.6c1.4,0.7,2.7,1.7,3.9,3
		c1.2,1.3,2,3.1,2.2,5.4c0.5-0.7,1.1-1.3,1.6-1.9c0.5-0.6,1-1.1,1.4-1.5c0.4-0.5,0.9-1,1.4-1.4l11.4,12.9l33.5-20.8l6.5,9.8
		c0.8,1.4,1.2,2.8,1.2,4.3c0,1.1-0.3,2.3-0.9,3.7c-0.6,1.4-2,2.6-4.2,3.7c-1.8,0.8-3.4,1.6-4.9,2.3c-1.5,0.7-3.1,1.5-4.9,2.3
		c-1.8,0.8-3.8,1.8-6.2,2.9c-2.4,1.1-5.4,2.4-9.1,4.1L804,424.4z M667.6,318.7c0.7,2.4,1.3,4.7,1.8,6.7c0.5,2,1,3.9,1.4,5.5l21-1.2
		l30-17.3c-5,0.5-10.1,1.1-15.3,1.7c-5.2,0.6-10.1,1.2-14.9,1.7c-4.8,0.5-9.2,1.1-13.3,1.5C674.3,317.9,670.7,318.3,667.6,318.7z
		 M729.6,283.6l-43.9,4.9c-2.2,2.3-4.3,4.5-6.4,6.5c-2.1,2-4.1,4.1-6,6.1l41.8-3.9L729.6,283.6z M771,314.2c0.1-1.2,0.1-2.4-0.2-3.5
		c-0.3-0.8-0.7-1.6-1.4-2.2c-0.7-0.7-1.8-1-3.3-1h-0.8c-1.4,0.3-4.7,0.7-10,1.2c-5.3,0.5-11.6,1.2-19,2c1.4,1.6,2.3,3.4,3,5.2
		c0.6,1.8,0.1,3.4-1.5,4.6c-1.4,1.1-2.9,2.2-4.5,3.3c-1.6,1.1-3.4,2.3-5.3,3.7l40.2-2.2L771,314.2z"/>
	<path class="st0" d="M914,298.5c-0.1,18.5-0.2,35.5-0.2,50.9c0,15.4,0,28.9,0.1,40.5c0.1,11.6,0.1,20.9,0.2,28
		c0.1,7.1,0,11.7-0.1,13.6c-0.3,3.9-1.5,6.6-3.7,8.1c-2.2,1.4-5,2.1-8.6,2.1h-13.9c0.1-1.2,0.2-2.4,0.2-3.7c0-1.2,0.1-2.4,0.2-3.7
		l-29.6,1.4c-1,1.5-2.1,2.6-3.4,3.4c-1.3,0.7-2.6,1.3-3.8,1.7c-1.5,0.4-3,0.7-4.5,0.8h-12.9l0.6-125.3c-0.7-0.3-1.3-0.5-1.8-0.7
		c-0.5-0.2-1-0.4-1.2-0.5l-8.4-6.9l44.3-42.6l1,0.4c1.9,1.6,3.4,3.1,4.5,4.3c1.1,1.2,2.1,2.6,3.1,4.1c0.9,1.5,1.5,3,1.6,4.5
		c0.3,1.6-0.1,3.1-1.2,4.3c-1.1,1.4-2.1,2.7-3.1,3.9c-1,1.2-1.9,2.4-2.9,3.5l30-3.9c3.8,0,7,1,9.5,2.9
		C912.7,291.4,914,294.4,914,298.5z M889.3,414.6c0.7-14.7,1.4-30.4,2.1-47c0.7-16.7,1.5-35.1,2.1-55.2c0.1-1.2,0-2.2-0.3-3
		c-0.3-0.7-0.8-1.3-1.4-1.7s-1.2-0.7-1.8-0.8c-0.6-0.1-1.2-0.2-1.7-0.2h-1.2c-3.5,0.7-7.1,1.4-10.8,2c-3.1,0.7-6.6,1.3-10.5,1.9
		s-7.6,1.3-11.3,1.9c0.3,5,0.6,11.3,0.9,18.7c0.3,7.4,0.7,15.4,1.1,24l29-4.3l-0.2,11c-0.1,2.3-0.6,4.4-1.4,6.1
		c-0.8,1.6-2.1,3.1-3.8,4.4c-1.7,1.3-4.1,2.1-7.2,2.3l-15.3,1l2.2,42.8L889.3,414.6z M999.5,282c3.8,0,7,1,9.7,2.9
		c2.7,1.9,4,5,4,9.2c-0.4,12.9-0.8,25.2-1.2,36.7c-0.4,11.6-0.8,23-1.2,34.3c-0.4,11.3-0.9,22.7-1.3,34.3
		c-0.5,11.6-1.1,23.8-1.7,36.7c0,1.8-0.4,3.2-1.2,4.3c-0.8,1.1-1.8,1.9-3,2.4c-1.2,0.5-2.4,0.9-3.7,1.1c-1.3,0.2-2.5,0.3-3.6,0.3
		H994c-0.4-0.1-0.8-0.2-1-0.2c-7.5-1.5-14.3-2.9-20.6-4.3c-5.4-1.1-10.7-2.2-15.7-3.4c-5-1.2-8.5-2.1-10.4-2.8
		c-1.9-0.5-3.2-1.4-3.9-2.4c-0.7-1.1-1.1-2.2-1.2-3.3c-0.1-1.2,0-2.6,0.4-4.1l3.7-9l26.7,6.1c0.4,0.1,0.9,0.3,1.4,0.4
		c0.4,0,0.8,0,1.3,0.1c0.5,0.1,1.1,0.1,1.7,0.1c1.9,0,3.8-0.4,5.6-1.3c1.8-0.9,2.9-2.8,3.2-5.6c1.1-10.1,2-19.1,2.7-27.2
		c0.7-8.1,1.3-16.1,1.9-24.2c0.6-8,1.3-16.5,2-25.4c0.7-8.9,1.6-19.2,2.5-30.9c0.3-2.3-0.3-3.8-1.7-4.5c-1.4-0.7-2.7-1-3.8-1h-1.2
		c-0.1,0.1-0.3,0.2-0.4,0.2l-36.9,5.3c-0.7,2-1.3,3.9-1.9,5.6c-0.6,1.7-1.4,3.5-2.3,5.4c-1.6,3.7-3.7,6-6.3,7
		c-2.6,1-4.8,1.5-6.7,1.5c-1.1,0-1.8-0.1-2.2-0.2c-0.3,0-0.5,0-0.8,0l-11.4-3.9l31-59.4c2.7,1,5,2.2,6.7,3.7c1.6,1.4,3,3,4,5
		c1,2,1.1,4.3,0.1,7c-0.5,1.4-1,2.7-1.4,4c-0.4,1.3-0.8,2.5-1.2,3.6L999.5,282z M954.2,388.7l-27.5-45.3c0.1-0.1,0.6-0.5,1.5-1.1
		c0.9-0.6,2-1.3,3.3-1.9c1.3-0.7,2.8-1.3,4.4-1.8c1.6-0.5,3.2-0.8,4.7-0.8c1.8,0,3.1,0.4,4.1,1.2c3.1,3.8,5.8,7.1,8,10
		c2.2,2.9,4.6,6,7.1,9.4c2.6,3.4,4.9,6.7,6.9,9.8c1.6,1.8,2.5,3.4,2.6,4.9c0.1,1.5-0.2,2.9-0.7,4.1c-0.7,1.4-1.7,2.6-3.1,3.7
		L954.2,388.7z"/>
</g>
<g>
	<path class="st0" d="M65.5,523.8v32.4c-0.3,1.4-0.8,2.5-1.6,3.5c-0.7,0.8-1.7,1.6-3.1,2.3c-1.4,0.7-3.3,1.1-5.7,1.1h-4.3
		c-3.3,0-5.5-0.3-6.8-0.8c-1.3-0.5-1.5-2.2-0.7-4.9c0.5-1.6,1.1-4.1,1.5-7.5c0.5-3.4,1-6.9,1.6-10.6c0.6-3.7,1.3-7,2.1-10.1
		c0.8-3.1,1.8-4.9,2.9-5.6c1.2-0.7,2.8-1.3,4.6-1.7c1.8-0.5,3.6-0.7,5.2-0.7c1.2,0,2.2,0.2,3.1,0.5C65.1,522,65.5,522.7,65.5,523.8z
		 M104.9,523.8v32.4c-0.1,1.4-0.6,2.5-1.4,3.5c-0.7,0.8-1.7,1.6-3,2.3c-1.3,0.7-3.2,1.1-5.6,1.1h-4.3c-3.3,0-5.6-0.3-6.9-0.8
		c-1.4-0.5-1.6-2.2-0.8-4.9c0.4-1.6,0.9-4.1,1.4-7.5c0.5-3.4,1.1-6.9,1.7-10.6c0.6-3.7,1.3-7,2.1-10.1c0.8-3.1,1.8-4.9,2.9-5.6
		c1.2-0.7,2.7-1.3,4.5-1.8c1.8-0.5,3.4-0.8,4.9-0.8c1.2,0,2.3,0.2,3.2,0.6C104.4,522,104.9,522.7,104.9,523.8z"/>
	<path class="st0" d="M351.8,676.2l-4.1,15.4c-0.7,2-1.6,3.7-2.9,5.4c-1,1.3-2.4,2.5-4.3,3.7c-1.9,1.1-4.2,1.7-7,1.7
		c-1.5,0-3.3-0.2-5.6-0.7c-3.9-1-9.9-2.6-18.1-4.8c-8.1-2.2-17.4-4.7-27.7-7.4c-10.3-2.8-21.3-5.7-32.8-8.9
		c-11.6-3.2-22.7-6.2-33.4-9.2c-1.8,4.7-3.5,9.1-5.1,13.1c-1.6,4-3.2,7.6-4.6,10.9c-1.3,2.8-3,4.6-5,5.6c-2,1-4.1,1.5-6.2,1.5
		c-1.1,0-2.2-0.1-3.2-0.2c-1-0.2-1.9-0.4-2.7-0.7c-0.8-0.3-1.6-0.7-2.4-1l-13.2-5.1l13.4-32c-8.3-2.3-15.1-4.3-20.4-6
		c-5.3-1.7-8.4-2.8-9.4-3.3c-2.3-1-3.7-2.6-4.3-4.9c-0.6-2.3-0.8-4.6-0.6-7.1c0.3-2.6,1-5.5,2-8.8l41.7,9l8.3-19.5h-4.1
		c-0.8,1.8-2,3.2-3.4,4.3c-1.5,1.1-2.9,1.9-4.4,2.6c-1.8,0.7-3.6,1.1-5.4,1.5l-14.2,0.7l-10-98.3c0.6-0.2,1.4-0.3,2.2-0.5
		c0.8,0,1.7,0,2.6-0.1c0.9-0.1,1.9-0.1,3-0.1c2.3,0,4.6,0.2,7.1,0.7c2.4,0.5,4.6,1.5,6.3,3.2l58.3-4.1l5.9-14.2
		c-9.4,0.3-18.8,0.7-28.2,1.1c-9.4,0.4-18.1,0.8-26.4,1.1c-8.2,0.3-15.5,0.7-21.8,1c-6.3,0.3-11.3,0.7-14.9,1h-0.5
		c-2.6,0-4.7-0.9-6.2-2.6c-1.5-1.7-2.7-3.7-3.5-6c-0.8-2.3-1.4-4.5-1.7-6.6c-0.3-2.1-0.6-3.5-0.7-4.1l201.3-15.6l0.2,13.7
		c0,1-0.1,2-0.2,2.9c-0.2,0.8-0.4,1.8-0.9,2.8c-0.4,1.1-1,2.1-1.8,3c-2.8,3.1-6.6,4.7-11.5,4.9c-2,0.2-4.9,0.3-8.9,0.5
		c-4,0.2-8.7,0.4-14,0.6c-5.4,0.2-11.3,0.5-17.9,0.7s-13.5,0.5-20.6,0.9L265,531l52.9-3.7h1c1,0,2.4,0.1,4.1,0.4
		c1.8,0.2,3.5,0.9,5.2,1.8c1.7,1,3.2,2.4,4.4,4.4c1.2,2,1.7,4.6,1.6,8.1c-1.3,19.2-2.6,34.8-4,46.7c-1.4,12-2.2,20.3-2.6,25
		c-0.3,2.6-1,4.7-2.1,6.2c-1.1,1.5-2.2,2.8-3.5,3.7c-1.3,0.9-2.6,1.5-4,1.7c-1.4,0.2-2.6,0.4-3.5,0.4c-0.7,0-1.1-0.1-1.5-0.2
		c-0.2,0-0.3,0-0.5,0h-13.4l0.7-4.4l-66.4,1.2l-9,26.1L351.8,676.2z M232.3,556.1c-7.8,0.5-15.3,1-22.4,1.6
		c-7.2,0.6-13.6,1.1-19.3,1.6l2,9.5l35.4-2.2L232.3,556.1z M212.8,602.2l5.4-12.4l-21.2,0.7c0.6,3.3,1.4,7.3,2.2,12.2L212.8,602.2z
		 M303.3,598.3c0.8-4.4,1.5-8.3,2.2-11.7c-2.4,0-5.7,0.1-9.9,0.2c-4.1,0.2-8.9,0.4-14.3,0.6c-5.4,0.2-11.2,0.5-17.4,0.6
		c-6.3,0.2-12.7,0.4-19.2,0.7c-0.7,2.1-1.3,4.1-2,6.1c-0.7,2-1.4,4-2.2,6.1L303.3,598.3z M302.3,551.2c-4.1,0.3-8.5,0.6-13.4,0.7
		c-4.2,0.3-9.1,0.7-14.6,1.1c-5.5,0.4-11.4,0.9-17.6,1.3l-3.7,10.5l56.4-3.7c0.2-0.5,0.2-1,0.2-1.6c0-0.6,0.1-1.1,0.2-1.6
		c0.5-3.1-0.1-5-1.7-5.7c-1.6-0.7-3.1-1.1-4.4-1.1H302.3z"/>
	<path class="st0" d="M469.5,505.8c-4.7,7-9.4,14.2-13.9,21.7c-4.6,7.5-8.9,14.7-13.2,21.7c0,5.9,0,13,0.1,21.5
		c0.1,8.5,0.2,17.4,0.2,26.7c0.1,9.4,0.1,18.8,0.1,28.4c0,9.6,0,18.5,0,26.6c0,8.1,0,15.2,0,21.2c0,6-0.1,10.1-0.2,12.2
		c-0.2,3.9-0.9,7-2.2,9.2c-1.3,2.2-2.8,3.8-4.6,4.8c-1.8,1.1-3.9,1.9-6.3,2.2l-18.5,1.2l7.6-115.4c-1.3,2.3-3.2,4.1-5.6,5.6
		c-2.4,1.5-5,2.2-7.6,2.2c-1.6,0-3.1-0.2-4.4-0.6c-1.3-0.4-2.5-0.9-3.7-1.3c-1.1-0.6-2.2-1.3-3.2-2l-10.7-6.3l74.4-99.3
		c3.3,2.1,5.9,4.2,8.1,6.3c2,2,3.5,4.1,4.5,6.5C471.4,501.2,471.1,503.6,469.5,505.8z M581.7,566.8c-2,0.2-5.2,0.4-9.9,0.6
		s-10.1,0.5-16.3,0.7c-6.3,0.2-13.1,0.4-20.6,0.6c-7.5,0.2-15.1,0.4-22.9,0.7c-2.6,13.3-5.4,26.9-8.3,40.7
		c-2.9,13.8-5.6,26.6-8.1,38.2c-2.4,11.6-4.6,21.5-6.3,29.5c-1.8,8.1-3,13-3.7,14.8c-0.7,2.3-1.6,4.1-2.8,5.4
		c-1.2,1.3-2.5,2.3-3.8,3c-1.3,0.7-2.6,1.2-4,1.5c-1.4,0.2-2.6,0.4-3.8,0.4c-1.5,0-2.4-0.1-2.9-0.2c-0.5,0-0.9-0.1-1.2-0.2
		l-15.6-1.5l34.2-130.5l-20.7,0.7c-2.3,0-4-0.9-5.1-2.7c-1.1-1.8-2-3.8-2.7-6.1c-0.7-2.6-1.1-5.5-1.2-8.8l35.1-3.9l16.3-62.5
		c3.6,0.5,6.7,1.2,9.5,2.2c2.3,0.8,4.3,2,6.1,3.7c1.8,1.6,2.5,3.7,2.2,6.3c-0.8,4.9-2,11.5-3.5,19.8c-1.5,8.3-3.3,17.6-5.2,27.8
		l80.8-8.8v14.6c-0.3,2.3-1.1,4.4-2.2,6.3c-1,1.6-2.5,3.2-4.5,4.6C588.3,565.4,585.4,566.4,581.7,566.8z M603.9,673.7
		c1.3,4.7,1.2,9-0.2,12.9c-1.1,3.3-3.8,6.3-8.1,9.3c-4.2,2.9-11.1,4.6-20.7,5.1c-3.6,0.2-7,0.2-10.2,0.2c-3.3,0-6.3,0-9,0
		c-5.7,0-10.5,0-14.5-0.1c-4-0.1-7.3-0.1-9.9-0.1c-4.6,0-8-1-10.2-3c-2.3-2-3.9-4.2-4.9-6.5c-1.1-2.9-1.6-6.2-1.5-9.8l9-101h14.6
		c3.9,0,6.7,0.8,8.5,2.3c1.8,1.5,3,3.2,3.7,5c0.6,2.1,0.8,4.6,0.5,7.3c-2.4,11.7-4.6,22.5-6.6,32.5c-0.8,4.2-1.6,8.5-2.4,12.7
		c-0.8,4.2-1.5,8.2-2.2,11.8c-0.7,3.7-1.2,6.9-1.6,9.6c-0.4,2.8-0.6,4.8-0.6,6.1c0,4.4,1,7.2,2.9,8.5c2,1.3,4.6,2,7.8,2
		c0.8,0,1.6,0,2.4-0.1c0.8-0.1,1.6-0.1,2.4-0.1c7-0.3,13.3-1.4,18.8-3.3c5.5-1.9,10.2-3.9,13.9-6c4.6-2.4,8.6-5.1,12.2-8.1
		L603.9,673.7z M576.1,525.8c-4.2,4.2-7.2,7-9,8.3c-1,0.8-1.7,1.4-2.2,1.7l-27.6-36.1c1.5-1.5,3.1-2.8,4.9-3.9c1.5-1,3.1-1.9,5-2.7
		c1.9-0.8,3.8-1.2,5.7-1.2c2.3,0,4.4,0.7,6.3,2.2l17.3,13.9c1.8,1.5,3,3.1,3.7,4.9c0.6,1.6,0.8,3.5,0.5,5.6
		C580.4,520.6,578.8,523.1,576.1,525.8z"/>
	<path class="st0" d="M848.4,586.8l-8.5,12.7c-0.8,1.5-1.8,2.7-2.9,3.7c-1,1-2.2,1.9-3.7,2.7c-1.5,0.8-3.2,1.2-5.1,1.2
		c-1,0-2-0.1-3.2-0.4c-1.1-0.2-2.4-0.8-3.7-1.6c-2.6-1.5-5.9-3.3-9.8-5.6c-3.9-2.3-8.3-5-13.2-8.1c1.3,1.8,2,4,2,6.6
		c0,2.6-0.9,5.7-2.7,9.3c-2.6,4.9-4.8,8.8-6.6,11.8c-1.8,3-3,5.4-3.8,7.1c-0.7,1.7-0.8,2.9-0.2,3.5c0.6,0.7,1.8,1,3.8,1h0.7
		c2.3,0,4.7-0.1,7.3-0.2c2.6-0.2,5.1-0.3,7.4-0.5c2.4-0.2,5.2-0.4,8.4-0.7h1.5c1.1,0,2.6,0.2,4.4,0.5c1.8,0.3,3.5,1.1,5,2.2
		c1.5,1.1,2.7,2.8,3.4,5.1c0.7,2.3,0.5,5.4-0.6,9.3l-10.2,48.8c-0.7,2.1-1.5,4-2.7,5.6c-1,1.3-2.4,2.5-4.1,3.7
		c-1.8,1.1-4.1,1.7-7.1,1.7c-1.8,0-3.7-0.2-5.6-0.7c-1-0.2-3-0.6-6.2-1.2c-3.2-0.7-6.8-1.4-10.9-2.2c-4.1-0.8-8.4-1.7-12.9-2.6
		c-4.6-0.9-8.8-1.8-12.8-2.6c-4-0.8-7.4-1.5-10.2-2.2c-2.8-0.7-4.6-1.1-5.2-1.2c-2-0.8-3.3-1.8-4.1-2.9c-0.8-1.1-1.3-2.4-1.5-3.7
		c-0.3-1.5-0.3-3,0-4.6l4.6-11.7l47.1,10c0.2,0.2,0.4,0.2,0.7,0.2c0.3,0.2,1,0.2,2,0.2c1.1,0,2.4-0.3,3.7-0.9
		c1.3-0.6,2.4-1.8,3.2-3.8c0.5-1.3,1.1-3,1.8-5c0.7-2,1.4-4.1,2.1-6.3c0.6-2.2,1.3-4.3,1.8-6.3c0.6-2,1-3.7,1.3-5
		c0.5-1.3,0.5-2.3,0.1-2.9c-0.4-0.6-0.9-1.1-1.6-1.5c-0.8-0.5-1.8-0.7-2.9-0.7c-4.4,0.5-8.5,1-12.4,1.5c-3.4,0.5-6.8,0.9-10.2,1.2
		c-3.4,0.3-6,0.7-7.8,1c-0.8,0-1.5,0-2.1,0.1c-0.6,0.1-1.3,0.1-2.1,0.1c-2.1,0-4.1-0.2-6-0.6c-1.9-0.4-3.3-1.3-4.3-2.7
		c-1-1.4-1.3-3.3-1-5.6c0.3-2.4,1.6-5.5,3.9-9.4l11.2-18.8c0.8-1.5,1.4-2.8,1.7-3.9c0.2-1,0-1.9-0.5-2.7c-0.5-0.8-1.7-1.2-3.7-1.2
		c-0.3,0-0.7,0-1.1,0.1c-0.4,0.1-0.8,0.1-1.1,0.1c-2.1,0.2-5.1,0.5-9,1c-3.9,0.5-8.3,1.1-13.2,1.7c-4.9,0.7-10.1,1.3-15.7,2
		c-5.6,0.7-11.2,1.3-16.7,2c-0.2,0.2-0.2,0.3-0.2,0.5c-3.3,7.6-6.5,15.7-9.8,24c-3.3,8.4-6.3,16.3-9.3,23.8
		c-2.9,7.5-5.6,14.2-7.9,20.1c-2.4,5.9-4.3,10.3-5.7,13.1c-2,3.9-4.4,6.5-7.2,7.7c-2.8,1.2-5.4,1.8-7.7,1.8c-0.8,0-1.5,0-2.1-0.1
		c-0.6-0.1-1.1-0.1-1.6-0.1c-0.5-0.2-1-0.3-1.5-0.5l-16.1-5.6l42.9-82.5h-1c-3.1,0-5.5-0.4-7.3-1.3c-1.8-0.9-3.1-1.9-3.9-3
		c-1-1.3-1.6-2.8-2-4.4l-1-6.3c-0.8,1.3-1.6,2.6-2.4,3.9c-0.8,1.3-1.7,2.7-2.7,4.1c-1.3,2.3-2.8,3.8-4.4,4.6
		c-1.6,0.8-3.3,1.2-4.9,1.2c-1.3,0-2.5-0.2-3.7-0.6c-1.1-0.4-2.2-0.9-3.2-1.3s-2-1.1-2.9-1.7l-11.2-7.1l34.4-49l-24.4,1.2h-0.5
		c-2.4,0-4.4-0.9-6-2.6c-1.5-1.7-2.8-3.7-3.7-5.9c-0.9-2.2-1.5-4.4-1.8-6.6c-0.3-2.2-0.5-3.6-0.5-4.3l93.7-6.6l0.2-15.1
		c-7,0.2-13.8,0.4-20.4,0.6s-12.8,0.5-18.5,0.7c-5.8,0.2-11,0.5-15.7,0.7c-4.7,0.2-8.5,0.5-11.5,0.6h-0.5c-2.4,0-4.4-0.9-6-2.6
		c-1.5-1.7-2.8-3.7-3.7-5.9c-0.9-2.2-1.5-4.4-1.7-6.6s-0.4-3.6-0.4-4.3l182-13.7l0.5,13.2c0,1-0.1,2-0.2,2.9
		c-0.2,0.8-0.5,1.8-0.9,2.8c-0.4,1.1-1,2.1-1.8,3.1c-1.3,1.6-2.9,2.8-4.9,3.5c-2,0.7-4.1,1.2-6.6,1.3c-2.3,0.2-5.7,0.4-10.1,0.6
		c-4.5,0.2-9.7,0.5-15.7,0.7c-6,0.2-12.6,0.5-19.6,0.6c-7.1,0.2-14.4,0.4-21.8,0.7c0.2,2.6,0.3,5,0.5,7.2c0.2,2.2,0.3,4.5,0.5,7
		l97.1-7.1l0.2,13.2c0,1-0.1,2-0.2,2.9c-0.3,2.3-1.2,4.3-2.7,6.1c-2.4,2.8-6.3,4.3-11.5,4.6c-3.4,0.3-9.8,0.7-19.3,1.1
		c-9.4,0.4-20.5,0.9-33.2,1.3L848.4,586.8z M672.2,592.9c4.7-0.3,11.6-0.8,20.7-1.3c9.1-0.6,18.7-1.2,28.8-1.8l0.7-36.4
		c-5,0.3-10,0.5-14.8,0.6c-4.8,0.1-9.5,0.3-14,0.6c-5.4,8.9-9.6,16.3-12.7,22.1C677.9,582.5,675,587.9,672.2,592.9z M782.5,585.9
		c1.3,0,2.6,0,4,0c1.4,0,2.7,0.2,4,0.5c-6.3-4.1-13-8.4-19.9-12.9c-6.9-4.6-13.9-9.2-21.1-13.9l1.7,27.1v1.2
		c7-0.5,13.3-0.9,18.8-1.2C775.6,586.3,779.7,586,782.5,585.9z"/>
	<path class="st0" d="M883.2,560.1v-32.4c0.1-1.4,0.6-2.5,1.4-3.5c0.7-0.9,1.7-1.8,3.1-2.4c1.4-0.7,3.2-1,5.5-1h4.3
		c3.3,0,5.6,0.3,6.9,0.8c1.4,0.5,1.6,2.2,0.8,4.9c-0.4,1.6-0.9,4.2-1.4,7.5c-0.5,3.4-1.1,6.9-1.7,10.6s-1.3,7-2.1,10.1
		c-0.8,3.1-1.8,4.9-2.9,5.6c-1.2,0.7-2.7,1.3-4.5,1.8c-1.8,0.5-3.4,0.8-4.9,0.8c-1.2,0-2.3-0.2-3.2-0.6
		C883.6,562,883.2,561.2,883.2,560.1z M922.6,560.1v-32.4c0.3-1.4,0.8-2.5,1.6-3.5c0.7-0.9,1.7-1.8,3.2-2.4c1.4-0.7,3.3-1,5.6-1h4.3
		c3.3,0,5.5,0.3,6.8,0.8c1.3,0.5,1.5,2.2,0.7,4.9c-0.5,1.6-1.1,4.2-1.5,7.5c-0.5,3.4-1,6.9-1.6,10.6c-0.6,3.7-1.3,7-2.1,10.1
		c-0.8,3.1-1.8,4.9-2.9,5.6c-1.2,0.7-2.8,1.3-4.6,1.7c-1.8,0.5-3.6,0.7-5.2,0.7c-1.2,0-2.2-0.2-3.1-0.5
		C923,561.9,922.6,561.2,922.6,560.1z"/>
</g>
<g>
</g>
<g>
</g>
<g>
</g>
<g>
</g>
<g>
</g>
<g>
</g>
<g>
</g>
<g>
</g>
<g>
</g>
<g>
</g>
<g>
</g>
<g>
</g>
<g>
</g>
<g>
</g>
<g>
</g>
</svg>
